<svg width="21" height="21" viewBox="0 0 21 21" fill="none" xmlns="http://www.w3.org/2000/svg">
<path d="M7.98355 16.9769C8.24693 16.8939 8.3932 16.6132 8.31024 16.3498C8.22727 16.0864 7.9465 15.9401 7.68312 16.0231L7.98355 16.9769ZM3.12697 13.3497L2.64336 13.2228L2.38942 14.19L2.87303 14.3169L3.12697 13.3497ZM12.6667 19.8333V20.3333H13.6667V19.8333H12.6667ZM12.5833 13.4167L12.5299 12.9195C12.3382 12.9401 12.1754 13.0692 12.1115 13.2511C12.0477 13.4331 12.0942 13.6355 12.231 13.7714L12.5833 13.4167ZM17.1667 8.38333H17.6667L17.6667 8.38172L17.1667 8.38333ZM16.0558 5.70833L15.5897 5.52732C15.5181 5.71182 15.562 5.92122 15.7018 6.06138L16.0558 5.70833ZM15.9892 3.01917L16.4457 2.81528C16.3855 2.68036 16.2686 2.579 16.1265 2.5384L15.9892 3.01917ZM13.0925 4.075L12.9664 4.55883C13.1019 4.59417 13.2461 4.57101 13.3638 4.495L13.0925 4.075ZM7.9075 4.075L7.63629 4.49505C7.75395 4.57102 7.89809 4.59416 8.03361 4.55883L7.9075 4.075ZM5.01083 3.01917L4.87335 2.53844C4.73132 2.57906 4.61453 2.6804 4.55429 2.81528L5.01083 3.01917ZM4.94417 5.70833L5.29819 6.06141C5.43797 5.92126 5.48191 5.71183 5.41025 5.52732L4.94417 5.70833ZM3.83333 8.405H4.33333L4.33333 8.40372L3.83333 8.405ZM8.41667 13.4167L8.76962 13.7708C8.90533 13.6356 8.95181 13.4347 8.88931 13.2536C8.82681 13.0724 8.66631 12.943 8.47608 12.9202L8.41667 13.4167ZM7.83333 15.1667H8.33333C8.33333 15.1544 8.33289 15.1422 8.33199 15.13L7.83333 15.1667ZM7.33333 19.8333V20.3333H8.33333V19.8333H7.33333ZM7.83333 16.5L7.68312 16.0231C6.85689 16.2833 6.30959 16.2615 5.92889 16.1359C5.54966 16.0107 5.26682 15.7601 5.00963 15.4248C4.87985 15.2557 4.76159 15.0716 4.64062 14.8757C4.52408 14.6871 4.3978 14.4752 4.26935 14.2858C4.01828 13.9155 3.67242 13.4929 3.12697 13.3497L3 13.8333L2.87303 14.3169C3.04175 14.3612 3.21068 14.5063 3.44169 14.847C3.55428 15.0131 3.66086 15.1925 3.78985 15.4013C3.91439 15.6029 4.05432 15.8225 4.2162 16.0335C4.54235 16.4587 4.97679 16.8747 5.61549 17.0855C6.2527 17.2958 7.02395 17.2792 7.98355 16.9769L7.83333 16.5ZM13.1667 15.0833H13.6667C13.6667 14.6618 13.6475 14.2986 13.5366 13.9654C13.4198 13.6148 13.2175 13.3419 12.9357 13.0619L12.5833 13.4167L12.231 13.7714C12.4483 13.9873 12.5377 14.131 12.5878 14.2814C12.6437 14.4493 12.6667 14.6716 12.6667 15.0833H13.1667ZM12.5833 13.4167L12.6368 13.9138C13.8304 13.7855 15.1021 13.4866 16.0744 12.6449C17.0685 11.7844 17.6667 10.4322 17.6667 8.38333H17.1667H16.6667C16.6667 10.2295 16.1361 11.2689 15.4199 11.8888C14.6821 12.5275 13.6621 12.7978 12.5299 12.9195L12.5833 13.4167ZM17.1667 8.38333L17.6667 8.38172C17.663 7.24669 17.2113 6.15902 16.4099 5.35529L16.0558 5.70833L15.7018 6.06138C16.3171 6.67845 16.6639 7.51352 16.6667 8.38494L17.1667 8.38333ZM16.0558 5.70833L16.5219 5.88935C16.713 5.39734 16.8046 4.87233 16.7916 4.34468L16.2917 4.35707L15.7919 4.36947C15.8017 4.76498 15.733 5.15852 15.5897 5.52732L16.0558 5.70833ZM16.2917 4.35707L16.7916 4.34468C16.7785 3.81703 16.6609 3.29721 16.4457 2.81528L15.9892 3.01917L15.5326 3.22305C15.694 3.5843 15.7821 3.97395 15.7919 4.36947L16.2917 4.35707ZM15.9892 3.01917C16.1265 2.5384 16.1261 2.53827 16.1256 2.53813C16.1254 2.53809 16.1249 2.53795 16.1246 2.53786C16.124 2.53768 16.1233 2.53749 16.1226 2.5373C16.1213 2.53693 16.1198 2.53654 16.1184 2.53615C16.1154 2.53536 16.1123 2.53453 16.1089 2.53367C16.1021 2.53196 16.0944 2.53014 16.0859 2.52826C16.0687 2.5245 16.048 2.52053 16.0236 2.51678C15.9748 2.50928 15.9118 2.50276 15.8342 2.50069C15.6787 2.49653 15.4666 2.51029 15.1945 2.56843C14.651 2.68454 13.8708 2.97702 12.8212 3.655L13.0925 4.075L13.3638 4.495C14.3358 3.86715 15.004 3.6317 15.4034 3.54636C15.6028 3.50377 15.7358 3.49841 15.8075 3.50033C15.8435 3.50129 15.8647 3.50409 15.8716 3.50517C15.8752 3.50571 15.8752 3.50583 15.8718 3.50509C15.8702 3.50472 15.8676 3.50415 15.8643 3.5033C15.8626 3.50288 15.8608 3.50239 15.8587 3.50183C15.8576 3.50155 15.8565 3.50125 15.8554 3.50094C15.8548 3.50078 15.8542 3.50062 15.8536 3.50045C15.8533 3.50036 15.8529 3.50023 15.8527 3.50019C15.8523 3.50006 15.8518 3.49993 15.9892 3.01917ZM13.0925 4.075L13.2186 3.59117C11.436 3.12651 9.56401 3.12651 7.78138 3.59117L7.9075 4.075L8.03361 4.55883C9.65085 4.13729 11.3491 4.13729 12.9664 4.55883L13.0925 4.075ZM7.9075 4.075L8.17871 3.65494C7.12871 2.97701 6.34856 2.68455 5.80522 2.56844C5.53317 2.5103 5.32112 2.49653 5.16567 2.50069C5.08806 2.50276 5.02508 2.50929 4.97631 2.51679C4.95195 2.52054 4.93121 2.52452 4.91405 2.52828C4.90547 2.53016 4.89779 2.53199 4.89101 2.5337C4.88762 2.53456 4.88445 2.53538 4.88151 2.53618C4.88004 2.53657 4.87862 2.53696 4.87726 2.53734C4.87658 2.53753 4.87592 2.53771 4.87526 2.5379C4.87494 2.53799 4.87446 2.53812 4.8743 2.53817C4.87382 2.5383 4.87335 2.53844 5.01083 3.01917C5.14831 3.49989 5.14785 3.50003 5.14739 3.50016C5.14724 3.5002 5.14678 3.50033 5.14648 3.50041C5.14588 3.50058 5.1453 3.50075 5.14473 3.5009C5.14358 3.50122 5.14249 3.50152 5.14144 3.5018C5.13936 3.50236 5.13747 3.50285 5.1358 3.50328C5.13245 3.50412 5.12992 3.5047 5.12824 3.50507C5.12487 3.50581 5.12489 3.5057 5.12838 3.50516C5.13532 3.50409 5.15643 3.50129 5.19238 3.50033C5.26403 3.49841 5.39693 3.50376 5.59624 3.54635C5.9956 3.6317 6.66379 3.86716 7.63629 4.49505L7.9075 4.075ZM5.01083 3.01917L4.55429 2.81528C4.33906 3.29721 4.22151 3.81703 4.20843 4.34468L4.70828 4.35707L5.20812 4.36947C5.21793 3.97395 5.30605 3.5843 5.46738 3.22305L5.01083 3.01917ZM4.70828 4.35707L4.20843 4.34468C4.19535 4.87233 4.287 5.39734 4.47808 5.88935L4.94417 5.70833L5.41025 5.52732C5.26702 5.15852 5.19832 4.76498 5.20812 4.36947L4.70828 4.35707ZM4.94417 5.70833L4.59014 5.35525C4.1903 5.75617 3.87347 6.23203 3.65781 6.75557L4.12012 6.94601L4.58244 7.13645C4.748 6.73452 4.99123 6.3692 5.29819 6.06141L4.94417 5.70833ZM4.12012 6.94601L3.65781 6.75557C3.44215 7.27911 3.33189 7.84006 3.33333 8.40628L3.83333 8.405L4.33333 8.40372C4.33222 7.96902 4.41687 7.53838 4.58244 7.13645L4.12012 6.94601ZM3.83333 8.405H3.33333C3.33333 10.4412 3.93249 11.7811 4.92695 12.6357C5.898 13.4701 7.16785 13.7708 8.35725 13.9131L8.41667 13.4167L8.47608 12.9202C7.33965 12.7842 6.31784 12.5124 5.57868 11.8772C4.86293 11.2622 4.33333 10.2354 4.33333 8.405H3.83333ZM8.41667 13.4167L8.06371 13.0625C7.44104 13.6831 7.27716 14.4201 7.33468 15.2033L7.83333 15.1667L8.33199 15.13C8.28951 14.5516 8.4073 14.1319 8.76962 13.7708L8.41667 13.4167ZM7.83333 15.1667H7.33333V19.8333H7.83333H8.33333V15.1667H7.83333ZM13.1667 19.8333H13.6667V17.8333H13.1667H12.6667V19.8333H13.1667ZM13.1667 17.8333H13.6667V15.0833H13.1667H12.6667V17.8333H13.1667Z" fill="#EBEBE3"/>
</svg>
