<svg width="15" height="15" viewBox="0 0 15 15" fill="none" xmlns="http://www.w3.org/2000/svg">
<path d="M5.88002 2.4L6.84002 3.36M7.80002 5.28C7.26982 5.28 6.84002 4.85019 6.84002 4.32C6.84002 3.78981 7.26982 3.36 7.80002 3.36C8.33021 3.36 8.76002 3.78981 8.76002 4.32C8.76002 4.85019 8.33021 5.28 7.80002 5.28ZM7.80002 5.28V9.12M8.76002 5.28L10.2 6.72M7.80002 9.12C8.33021 9.12 8.76002 9.54981 8.76002 10.08C8.76002 10.6102 8.33021 11.04 7.80002 11.04C7.26982 11.04 6.84002 10.6102 6.84002 10.08C6.84002 9.54981 7.26982 9.12 7.80002 9.12ZM7.12119 1.15882L1.75884 6.52118C1.38393 6.89608 1.38394 7.50392 1.75884 7.87882L7.12119 13.2412C7.4961 13.6161 8.10394 13.6161 8.47884 13.2412L13.8412 7.87882C14.2161 7.50392 14.2161 6.89608 13.8412 6.52118L8.47884 1.15882C8.10393 0.783917 7.4961 0.783918 7.12119 1.15882ZM10.68 8.16C10.1498 8.16 9.72002 7.73019 9.72002 7.2C9.72002 6.66981 10.1498 6.24 10.68 6.24C11.2102 6.24 11.64 6.66981 11.64 7.2C11.64 7.73019 11.2102 8.16 10.68 8.16Z" stroke="#150B0A"/>
</svg>
