<svg width="15" height="15" viewBox="0 0 15 15" fill="none" xmlns="http://www.w3.org/2000/svg">
<path d="M6.03024 11.9969C6.29362 11.9139 6.43989 11.6332 6.35693 11.3698C6.27397 11.1064 5.9932 10.9601 5.72981 11.0431L6.03024 11.9969ZM2.52699 9.11639L2.04338 8.98942L1.78945 9.95664L2.27306 10.0836L2.52699 9.11639ZM9.22002 13.92V14.42H10.22V13.92H9.22002ZM9.30002 9.3L9.24659 8.80286C9.05486 8.82347 8.89208 8.95249 8.82823 9.13444C8.76438 9.31639 8.81085 9.51884 8.94766 9.65473L9.30002 9.3ZM12.6 5.676H13.1L13.1 5.67439L12.6 5.676ZM11.8002 3.75L11.3341 3.56898C11.2625 3.75349 11.3064 3.96289 11.4462 4.10305L11.8002 3.75ZM11.7522 1.8138L12.2088 1.60991C12.1485 1.47499 12.0317 1.37363 11.8896 1.33304L11.7522 1.8138ZM9.66662 2.574L9.54051 3.05783C9.67607 3.09317 9.82024 3.07001 9.93791 2.994L9.66662 2.574ZM5.93342 2.574L5.66221 2.99405C5.77988 3.07002 5.92401 3.09316 6.05954 3.05783L5.93342 2.574ZM3.84782 1.8138L3.71034 1.33307C3.56832 1.37369 3.45152 1.47503 3.39128 1.60991L3.84782 1.8138ZM3.79982 3.75L4.15385 4.10308C4.29363 3.96292 4.33757 3.7535 4.26591 3.56898L3.79982 3.75ZM3.00002 5.6916H3.50003L3.50002 5.69032L3.00002 5.6916ZM6.30002 9.3L6.65298 9.65415C6.78868 9.5189 6.83517 9.318 6.77267 9.13689C6.71017 8.95578 6.54967 8.82631 6.35944 8.80354L6.30002 9.3ZM5.88002 10.56H6.38002C6.38002 10.5478 6.37958 10.5356 6.37868 10.5234L5.88002 10.56ZM5.38002 13.92V14.42H6.38002V13.92H5.38002ZM5.88002 11.52L5.72981 11.0431C5.15359 11.2246 4.79089 11.2035 4.5527 11.1249C4.31598 11.0468 4.13356 10.8895 3.95804 10.6607C3.86909 10.5447 3.78698 10.4172 3.70038 10.277C3.61822 10.1439 3.52453 9.98686 3.42983 9.84719C3.24625 9.57647 2.97246 9.23334 2.52699 9.11639L2.40002 9.6L2.27306 10.0836C2.34179 10.1017 2.43865 10.1673 2.60217 10.4084C2.68102 10.5247 2.75499 10.6493 2.84961 10.8025C2.93978 10.9485 3.04356 11.1115 3.16461 11.2693C3.40909 11.588 3.74312 11.9107 4.2393 12.0745C4.73401 12.2378 5.32066 12.2204 6.03024 11.9969L5.88002 11.52ZM9.72002 10.5H10.22C10.22 10.1951 10.2068 9.91386 10.1192 9.65088C10.0258 9.3704 9.86431 9.15577 9.65239 8.94526L9.30002 9.3L8.94766 9.65473C9.09513 9.80123 9.14368 9.88659 9.17042 9.96687C9.20298 10.0646 9.22002 10.2049 9.22002 10.5H9.72002ZM9.30002 9.3L9.35346 9.79713C10.2215 9.70383 11.1723 9.48465 11.9052 8.85019C12.6599 8.19693 13.1 7.17953 13.1 5.676H12.6H12.1C12.1 6.97687 11.7275 7.68146 11.2508 8.09411C10.7523 8.52555 10.0531 8.71617 9.24659 8.80286L9.30002 9.3ZM12.6 5.676L13.1 5.67439C13.0973 4.82026 12.7574 4.00177 12.1543 3.39695L11.8002 3.75L11.4462 4.10305C11.8631 4.52121 12.0981 5.08709 12.1 5.67761L12.6 5.676ZM11.8002 3.75L12.2663 3.93101C12.4106 3.55952 12.4798 3.16311 12.4699 2.7647L11.9701 2.77709L11.4702 2.78948C11.4768 3.05576 11.4306 3.3207 11.3341 3.56898L11.8002 3.75ZM11.9701 2.77709L12.4699 2.7647C12.46 2.3663 12.3713 1.9738 12.2088 1.60991L11.7522 1.8138L11.2957 2.01768C11.4043 2.26089 11.4636 2.52321 11.4702 2.78948L11.9701 2.77709ZM11.7522 1.8138C11.8896 1.33304 11.8891 1.3329 11.8886 1.33277C11.8885 1.33272 11.888 1.33259 11.8877 1.3325C11.887 1.33232 11.8864 1.33213 11.8857 1.33195C11.8844 1.33158 11.883 1.33121 11.8816 1.33083C11.8788 1.33007 11.8758 1.32929 11.8727 1.3285C11.8664 1.32691 11.8594 1.32526 11.8518 1.32359C11.8366 1.32026 11.8187 1.31685 11.7983 1.31371C11.7573 1.30741 11.7061 1.30219 11.6444 1.30054C11.5207 1.29724 11.3569 1.30832 11.1508 1.35236C10.7393 1.44027 10.1619 1.65883 9.39534 2.154L9.66662 2.574L9.93791 2.994C10.6269 2.54896 11.0923 2.38743 11.3597 2.33029C11.4931 2.3018 11.5778 2.29912 11.6177 2.30019C11.6378 2.30072 11.6472 2.30222 11.6463 2.30209C11.6459 2.30203 11.6431 2.30158 11.6378 2.30042C11.6351 2.29984 11.6319 2.29909 11.6281 2.29813C11.6262 2.29764 11.6241 2.29711 11.6219 2.29651C11.6208 2.29622 11.6197 2.29591 11.6185 2.29558C11.6179 2.29542 11.6173 2.29525 11.6167 2.29508C11.6164 2.295 11.6159 2.29487 11.6158 2.29482C11.6153 2.29469 11.6149 2.29456 11.7522 1.8138ZM9.66662 2.574L9.79274 2.09016C8.48609 1.74958 7.11396 1.74958 5.80731 2.09016L5.93342 2.574L6.05954 3.05783C7.2008 2.76036 8.39925 2.76036 9.54051 3.05783L9.66662 2.574ZM5.93342 2.574L6.20463 2.15394C5.43778 1.65883 4.8604 1.44027 4.44904 1.35236C4.24298 1.30833 4.07922 1.29724 3.95557 1.30054C3.89386 1.30219 3.84265 1.30741 3.80168 1.31372C3.78122 1.31686 3.76339 1.32027 3.74815 1.32361C3.74054 1.32528 3.73358 1.32693 3.72728 1.32852C3.72413 1.32932 3.72114 1.3301 3.71832 1.33086C3.71691 1.33124 3.71554 1.33161 3.71421 1.33198C3.71354 1.33217 3.71289 1.33235 3.71224 1.33253C3.71192 1.33262 3.71145 1.33276 3.71129 1.3328C3.71081 1.33294 3.71034 1.33307 3.84782 1.8138C3.98531 2.29453 3.98484 2.29466 3.98438 2.29479C3.98423 2.29483 3.98376 2.29496 3.98346 2.29505C3.98286 2.29522 3.98226 2.29539 3.98167 2.29555C3.9805 2.29588 3.97936 2.29619 3.97825 2.29648C3.97605 2.29708 3.97399 2.29762 3.97207 2.2981C3.96824 2.29907 3.96499 2.29982 3.96234 2.3004C3.95704 2.30157 3.95416 2.30202 3.95375 2.30209C3.95289 2.30222 3.96222 2.30072 3.98228 2.30019C4.02214 2.29912 4.10674 2.30179 4.24006 2.33028C4.50744 2.38742 4.97287 2.54897 5.66221 2.99405L5.93342 2.574ZM3.84782 1.8138L3.39128 1.60991C3.22877 1.9738 3.14002 2.3663 3.13014 2.7647L3.62998 2.77709L4.12983 2.78948C4.13643 2.52321 4.19575 2.26089 4.30437 2.01768L3.84782 1.8138ZM3.62998 2.77709L3.13014 2.7647C3.12026 3.16311 3.18946 3.55952 3.33374 3.93101L3.79982 3.75L4.26591 3.56898C4.16948 3.3207 4.12323 3.05576 4.12983 2.78948L3.62998 2.77709ZM3.79982 3.75L3.4458 3.39692C3.14491 3.69862 2.90649 4.05671 2.7442 4.45069L3.20651 4.64113L3.66883 4.83157C3.78102 4.5592 3.94584 4.31165 4.15385 4.10308L3.79982 3.75ZM3.20651 4.64113L2.7442 4.45069C2.58191 4.84466 2.49893 5.26679 2.50003 5.69288L3.00002 5.6916L3.50002 5.69032C3.49927 5.39575 3.55663 5.10393 3.66883 4.83157L3.20651 4.64113ZM3.00002 5.6916H2.50002C2.50002 7.18651 2.94116 8.19508 3.69618 8.84387C4.4278 9.47255 5.37682 9.69309 6.24061 9.79646L6.30002 9.3L6.35944 8.80354C5.54863 8.70651 4.84765 8.51484 4.34792 8.08542C3.87159 7.67612 3.50002 6.98069 3.50002 5.6916H3.00002ZM6.30002 9.3L5.94707 8.94585C5.46229 9.42898 5.33785 10.0041 5.38137 10.5966L5.88002 10.56L6.37868 10.5234C6.3502 10.1355 6.42855 9.87781 6.65298 9.65415L6.30002 9.3ZM5.88002 10.56H5.38002V13.92H5.88002H6.38002V10.56H5.88002ZM9.72002 13.92H10.22V12.48H9.72002H9.22002V13.92H9.72002ZM9.72002 12.48H10.22V10.5H9.72002H9.22002V12.48H9.72002Z" fill="#150B0A"/>
</svg>
