<svg width="16" height="16" viewBox="0 0 16 16" fill="none" xmlns="http://www.w3.org/2000/svg">
<path d="M12.8 8.68V8.52C12.8 7.81308 12.227 7.24 11.52 7.24H10.4C9.60474 7.24 8.96003 7.88471 8.96003 8.68C8.96003 9.47529 9.60474 10.12 10.4 10.12H11.36C12.1553 10.12 12.8 10.7647 12.8 11.56C12.8 12.3553 12.1553 13 11.36 13H10.4C9.60474 13 8.96003 12.3553 8.96003 11.56M7.04003 6.76V11.56C7.04003 12.3553 6.39532 13 5.60003 13C4.80474 13 4.16003 12.3553 4.16003 11.56M1.28003 1.48H14.72V14.92H1.28003V1.48Z" stroke="#150B0A"/>
</svg>
