<svg width="15" height="16" viewBox="0 0 15 16" fill="none" xmlns="http://www.w3.org/2000/svg">
<path d="M5.95993 3.4H6.91993M4.51993 4.84V2.44C4.51993 1.90981 4.94974 1.48 5.47993 1.48H9.31993C9.85012 1.48 10.2799 1.90981 10.2799 2.44V7.24C10.2799 7.77019 9.85012 8.2 9.31993 8.2H5.47993C4.94974 8.2 4.51993 8.62981 4.51993 9.16V13.96C4.51993 14.4902 4.94974 14.92 5.47993 14.92H9.31993C9.85012 14.92 10.2799 14.4902 10.2799 13.96V11.56M7.87993 5.32H1.63993C1.10974 5.32 0.679932 5.74981 0.679932 6.28V11.08C0.679932 11.6102 1.10974 12.04 1.63993 12.04H4.51993M6.91993 11.08H13.1599C13.6901 11.08 14.1199 10.6502 14.1199 10.12V5.32C14.1199 4.78981 13.6901 4.36 13.1599 4.36H10.2799M7.87993 13H8.83993" stroke="#150B0A"/>
</svg>
