<svg width="15" height="15" viewBox="0 0 15 15" fill="none" xmlns="http://www.w3.org/2000/svg">
<path d="M14.44 7.3285C14.44 8.91908 11.4314 10.2085 7.72 10.2085C4.00865 10.2085 1 8.91908 1 7.3285C1 5.73792 4.00865 4.4485 7.72 4.4485C11.4314 4.4485 14.44 5.73792 14.44 7.3285Z" stroke="#150B0A" stroke-width="0.864"/>
<path d="M4.51925 13.2373C5.91783 13.9949 8.48459 11.9636 10.2523 8.70024C12.02 5.4369 12.3192 2.17729 10.9206 1.41971C9.52203 0.662134 6.95527 2.69346 5.18758 5.95681C3.4199 9.22015 3.12068 12.4798 4.51925 13.2373Z" stroke="#150B0A" stroke-width="0.864"/>
<path d="M10.9206 13.2373C9.52205 13.9949 6.95529 11.9636 5.1876 8.70024C3.41992 5.4369 3.1207 2.17729 4.51927 1.41971C5.91785 0.662134 8.48461 2.69346 10.2523 5.95681C12.02 9.22015 12.3192 12.4798 10.9206 13.2373Z" stroke="#150B0A" stroke-width="0.864"/>
<path d="M6.76 7.3285C6.76 7.85869 7.18981 8.2885 7.72 8.2885C8.25019 8.2885 8.68 7.85869 8.68 7.3285C8.68 6.79831 8.25019 6.3685 7.72 6.3685C7.18981 6.3685 6.76 6.79831 6.76 7.3285Z" stroke="#150B0A" stroke-width="0.864"/>
</svg>
