<svg width="15" height="15" viewBox="0 0 15 15" fill="none" xmlns="http://www.w3.org/2000/svg">
<path fill-rule="evenodd" clip-rule="evenodd" d="M7.6 2.88C5.808 2.88 4.688 3.84 4.24 5.75999C4.912 4.8 5.696 4.44 6.592 4.68C7.10322 4.81693 7.46862 5.21429 7.87306 5.65415C8.53192 6.37068 9.29447 7.19999 10.96 7.19999C12.752 7.19999 13.872 6.23999 14.32 4.32C13.648 5.27999 12.864 5.63999 11.968 5.39999C11.4568 5.26306 11.0914 4.8657 10.6869 4.42584C10.0281 3.70931 9.26554 2.88 7.6 2.88ZM4.24 7.19999C2.448 7.19999 1.328 8.15999 0.880005 10.08C1.552 9.11998 2.336 8.75998 3.232 8.99998C3.74322 9.13692 4.10862 9.53428 4.51306 9.97414C5.17192 10.6907 5.93447 11.52 7.6 11.52C9.392 11.52 10.512 10.56 10.96 8.63998C10.288 9.59998 9.504 9.95998 8.608 9.71998C8.09679 9.58305 7.73139 9.18569 7.32695 8.74582C6.66809 8.02929 5.90554 7.19999 4.24 7.19999Z" stroke="#150B0A" stroke-linejoin="round"/>
</svg>
