<svg width="21" height="21" viewBox="0 0 21 21" fill="none" xmlns="http://www.w3.org/2000/svg">
<path d="M15.1667 5.16669H16.5M6.49999 1.16669H14.5C17.4455 1.16669 19.8333 3.5545 19.8333 6.50002V14.5C19.8333 17.4455 17.4455 19.8334 14.5 19.8334H6.49999C3.55447 19.8334 1.16666 17.4455 1.16666 14.5V6.50002C1.16666 3.5545 3.55447 1.16669 6.49999 1.16669ZM10.5 14.5C8.29085 14.5 6.49999 12.7092 6.49999 10.5C6.49999 8.29088 8.29085 6.50002 10.5 6.50002C12.7091 6.50002 14.5 8.29088 14.5 10.5C14.5 12.7092 12.7091 14.5 10.5 14.5Z" stroke="#EBEBE3"/>
</svg>
