<svg width="26" height="25" viewBox="0 0 26 25" fill="none" xmlns="http://www.w3.org/2000/svg">
<path fill-rule="evenodd" clip-rule="evenodd" d="M9.19372 4.6959C8.61473 5.2558 7.34212 4.89598 6.51325 4.89598C4.82677 4.89598 3.08242 5.00691 1.8067 6.28277C1.48678 6.60269 1.272 7.15537 1.17634 7.58551C1.04985 8.15446 0.861662 8.76416 1.00825 9.35037C1.49839 11.3111 4.15425 11.9022 5.00038 13.5947C5.34634 14.2864 3.69609 14.8429 3.36159 15.0655C1.2802 16.4497 1.06513 18.2369 1.21837 19.3098C1.48792 21.1963 2.93456 22.7787 4.83229 23.0498C6.0299 23.2208 7.26133 22.6604 8.36216 22.2933C9.28216 21.9867 10.6391 20.8894 11.682 21.4108C12.6183 21.879 13.5535 23.0302 14.2874 23.7642C14.955 24.4316 16.5267 24.3184 17.355 24.2264C17.7776 24.1794 18.3315 24.0106 18.6998 23.7642C21.8816 21.6344 18.6971 18.9941 18.7418 18.5533C18.8151 17.8304 20.3441 18.1593 21.4312 17.7969C23.5162 17.1019 25.0757 14.7519 24.4569 12.5861C24.0444 11.1427 22.5469 10.4086 21.2631 9.98073C20.7359 9.80499 19.104 10.017 18.8679 9.30835C18.73 8.8949 19.0623 5.9736 18.971 5.04172C18.6262 1.52204 14.9487 0.522514 12.6074 1.19773C10.8133 1.71503 9.96077 3.95405 9.19372 4.6959Z" fill="#B91C4F" stroke="#150B0A" stroke-miterlimit="1.5" stroke-linecap="round" stroke-linejoin="round"/>
</svg>
