<svg width="22" height="22" viewBox="0 0 22 22" fill="none" xmlns="http://www.w3.org/2000/svg">
<path d="M7.66693 2.33333H5.26693C3.77345 2.33333 3.02616 2.33333 2.45573 2.62398C1.95396 2.87964 1.54631 3.2873 1.29065 3.78906C1 4.35949 1 5.10679 1 6.60026V16.7336C1 18.2271 1 18.9734 1.29065 19.5438C1.54631 20.0456 1.95396 20.454 2.45573 20.7096C3.0256 21 3.77199 21 5.26255 21H15.4041C16.8947 21 17.64 21 18.2099 20.7096C18.7116 20.454 19.1206 20.0452 19.3763 19.5435C19.6667 18.9736 19.6667 18.228 19.6667 16.7375V14.3333M21 7.66667V1M21 1H14.3333M21 1L11.6667 10.3333" stroke="#150B0A" stroke-linecap="round" stroke-linejoin="round"/>
</svg>
