<svg width="15" height="15" viewBox="0 0 15 15" fill="none" xmlns="http://www.w3.org/2000/svg">
<path d="M14.3168 6.37878C14.5963 6.37878 15.05 6.59825 14.9167 7.34825C14.877 7.57128 14.9009 7.65557 14.8112 7.88634C14.7635 8.00907 14.7096 8.1317 14.6441 8.24951C14.5793 8.36601 14.5092 8.48 14.4288 8.58612C14.2053 8.88397 13.9215 9.16332 13.6041 9.41927C13.1692 9.76984 12.679 10.0825 12.2209 10.3392C11.155 11.0221 10.0574 11.528 8.90093 11.8621C7.7532 12.1937 6.54886 12.35 5.26843 12.3614C4.68874 12.3562 4.06311 12.3397 3.46596 12.2394C3.03163 12.1664 2.61202 12.0494 2.23077 11.8677C1.86127 11.6915 1.53664 11.4616 1.24753 11.1974C0.825596 10.8119 0.479919 10.3532 0.177254 9.89289C0.0232917 9.65968 -0.00586417 8.88223 0.227372 8.72825C0.460588 8.57429 0.774934 8.63864 0.928897 8.87187C1.1467 9.20054 1.38796 9.53003 1.67322 9.82121C1.93117 10.0845 2.22589 10.3162 2.57549 10.4814C2.87344 10.6223 3.20233 10.7086 3.54139 10.7649C4.08551 10.8553 4.65552 10.8673 5.18357 10.8715C6.37381 10.9021 7.49576 10.7869 8.5753 10.525C9.67131 10.2592 10.7245 9.84717 11.755 9.26016C12.1594 8.99695 12.5945 8.6858 12.9682 8.33395C13.2089 8.10731 13.4179 7.86076 13.5773 7.60438C13.677 7.32635 13.7563 7.06417 13.8184 6.78246C13.8937 6.44129 14.1667 6.37878 14.3168 6.37878Z" fill="#EBEBE3"/>
<path fill-rule="evenodd" clip-rule="evenodd" d="M10.4699 2.89953C10.7677 3.0267 10.7487 3.61819 10.7759 3.89097C10.8611 4.74212 10.9249 5.77078 10.6432 6.59013C10.5364 6.90075 10.1916 7.61114 9.74049 7.48529C9.47497 7.41123 9.33424 6.92306 9.26613 6.7004C8.99805 5.82414 9.26863 4.99875 9.31201 4.09764C9.34696 3.37216 9.63433 2.54262 10.4699 2.89953Z" fill="#EBEBE3"/>
<path fill-rule="evenodd" clip-rule="evenodd" d="M4.52765 2.89953C4.2299 3.0267 4.24889 3.61819 4.22161 3.89097C4.13651 4.74212 4.07262 5.77078 4.35435 6.59013C4.46117 6.90075 4.80595 7.61114 5.25707 7.48529C5.52259 7.41123 5.66332 6.92306 5.73143 6.7004C5.99951 5.82414 5.72893 4.99875 5.68555 4.09764C5.6506 3.37216 5.36323 2.54262 4.52765 2.89953Z" fill="#EBEBE3"/>
</svg>
