<svg width="24" height="24" viewBox="0 0 24 24" fill="none" xmlns="http://www.w3.org/2000/svg">
<path d="M12.0892 16.342C11.4007 16.342 10.3961 16.0132 9.45333 15.4769C8.93206 15.18 8.4823 14.7892 8.2135 14.2233C8.13088 14.0786 8.08168 13.9162 8.0697 13.7488C8.07403 13.587 8.07955 13.4359 8.23268 13.3683C8.31025 13.3405 8.39386 13.3358 8.47391 13.3548C8.55395 13.3737 8.62716 13.4155 8.6851 13.4754C8.8705 13.6594 8.97131 13.9428 9.17037 14.1013C10.5229 15.1786 12.0194 15.6502 13.7112 15.1119C14.4995 14.8611 15.0465 14.2916 15.4601 13.5746C15.5598 13.4017 15.6314 13.1823 15.7785 13.0756C15.9433 12.9561 16.2235 12.8394 16.3719 12.908C16.5203 12.9766 16.6403 13.2746 16.6424 13.4736C16.6447 13.6897 16.526 13.9257 16.41 14.1218C15.518 15.6296 14.2025 16.3597 12.0892 16.342Z" fill="#150B0A"/>
<path d="M7.89567 6.97265C9.02063 6.94696 9.70447 7.33129 10.2758 7.95945C10.3774 8.06873 10.4569 8.19768 10.5096 8.33882C10.6428 8.72061 10.3774 9.04991 10.0002 8.92803C9.72789 8.82274 9.47862 8.66286 9.26689 8.45766C8.75172 7.9992 8.19131 7.87732 7.5348 8.062C6.56947 8.33355 5.80379 8.83378 5.41038 9.82736C5.32078 10.0535 5.1763 10.2632 4.89295 10.1666C4.59051 10.0635 4.55569 9.7683 4.65533 9.53953C4.85262 9.08673 5.05533 8.60905 5.36789 8.24222C6.09423 7.39034 7.0877 7.06792 7.89567 6.97265Z" fill="#150B0A"/>
<path d="M19.5488 8.24723C19.4978 8.31681 19.414 8.54508 19.2734 8.5918C19.1824 8.60959 19.0887 8.60667 18.9988 8.58326C18.909 8.55985 18.8253 8.51652 18.7534 8.4563C18.5895 8.30843 18.4964 8.07358 18.385 7.86908C18.3163 7.72411 18.205 7.60507 18.0668 7.52883C17.9287 7.45258 17.7706 7.42301 17.6152 7.44431C16.757 7.52036 15.9868 7.77361 15.4328 8.52082C15.3486 8.63429 15.0527 8.6367 14.9974 8.58462C14.8793 8.47337 14.7698 8.33178 14.8114 8.1915C14.8928 7.93782 15.0328 7.70819 15.2192 7.52218C15.9613 6.77518 16.8839 6.47643 17.9036 6.50535C18.6746 6.52679 19.52 7.38453 19.5488 8.24723Z" fill="#150B0A"/>
<path d="M7.23285 11.2791C7.39366 11.3573 7.56981 11.5901 7.57709 11.7609C7.56878 11.8641 7.53723 11.9639 7.48497 12.0524C7.4327 12.1409 7.36114 12.2156 7.27593 12.2708C6.66762 12.5912 6.01101 12.7192 5.33473 12.5276C5.08314 12.4568 4.83953 12.3261 4.82055 11.9953C4.80215 11.6749 4.99571 11.4834 5.24769 11.3875C5.60943 11.25 6.97635 11.1544 7.23285 11.2791Z" fill="#150B0A"/>
<path d="M18.3751 11.7217C17.9265 11.5404 17.8145 11.0519 18.1635 10.7159C18.3639 10.5274 18.6084 10.3956 18.8731 10.3333C19.1518 10.2713 19.4582 10.3084 19.7485 10.3418C20.0313 10.3743 20.2939 10.4815 20.3711 10.8149C20.4149 10.9619 20.4073 11.1201 20.3497 11.2621C20.2921 11.404 20.188 11.5208 20.0555 11.5921C19.764 11.7531 18.5986 11.8121 18.3751 11.7217Z" fill="#150B0A"/>
<path d="M1.28755 8.35008C0.269404 12.465 1.16097 16.0952 3.93934 19.1409C4.01173 19.2196 4.0854 19.2983 4.15917 19.3741C5.65157 20.9088 7.51054 21.8564 8.98357 22.5158C9.61578 22.7997 12.8597 23.1444 13.7374 23.01C18.9533 22.209 22.3857 19.1839 23.5812 14.1228C23.8095 13.1314 23.9232 12.1158 23.9199 11.097C23.9255 8.69697 22.9428 5.9068 20.9162 3.8171C20.7076 3.6397 20.4997 3.45593 20.2987 3.27783C19.8627 2.8924 19.4119 2.49332 18.9404 2.153C15.3387 -0.453816 11.5964 -0.468402 7.81799 0.913943C4.39698 2.16471 2.20007 4.66706 1.28755 8.35008ZM7.83254 2.14611C11.1478 0.729479 14.4742 0.479468 17.7186 2.60123C18.3118 2.98959 19.8933 4.30398 20.1422 4.5014L20.1582 4.51353L20.1714 4.52861C21.4371 5.90883 22.8864 8.43251 22.8545 11.0268C22.8439 12.1361 22.6979 13.2396 22.4199 14.3114C21.5958 17.3916 19.6255 19.6365 16.3964 21.1718C13.1139 22.7881 8.40633 21.1542 7.15381 20.3039C5.76938 19.3306 4.55802 18.1198 3.57269 16.7243C2.02737 14.4745 1.68067 11.2406 2.51097 8.28422C2.89961 6.91922 3.57876 5.66025 4.49919 4.59859C5.41962 3.53693 6.55825 2.69919 7.83254 2.14611Z" fill="#150B0A"/>
</svg>
