<svg width="293" height="60" viewBox="0 0 293 60" fill="none" xmlns="http://www.w3.org/2000/svg">
<path d="M3.45 48.35C3.31667 48.35 3.1 48.35 2.8 48.35C2.53333 48.35 2.36667 48.3167 2.3 48.25C2.23333 48.1833 2.2 48.05 2.2 47.85L2.25 46.25L2.35 39.7L2.45 29.2C2.45 28.2 2.51667 25.9333 2.65 22.4C2.68333 21.5667 2.73333 20.2167 2.8 18.35C2.86667 16.45 2.86667 15.3333 2.8 15L2.75 13.95C2.75 13.0833 3.01667 12.65 3.55 12.65L5.4 12.7C5.73333 12.7 5.9 12.9333 5.9 13.4C5.9 13.5667 5.88333 13.7667 5.85 14C5.81667 14.2 5.8 14.4 5.8 14.6C5.7 15.3333 5.61667 17.2167 5.55 20.25C5.55 21.1833 5.48333 23.55 5.35 27.35C5.21667 31.0167 5.15 33.25 5.15 34.05C5.15 35.9833 5.18333 38.4333 5.25 41.4C5.31667 44.3333 5.38333 46.0833 5.45 46.65C5.48333 46.85 5.5 47.0833 5.5 47.35C5.5 47.5833 5.45 47.75 5.35 47.85C5.28333 47.95 5.16667 48.05 5 48.15C4.8 48.2833 4.28333 48.35 3.45 48.35ZM18.366 47.9C18.1993 47.9 17.816 47.8667 17.216 47.8C16.916 47.7667 16.2993 47.75 15.366 47.75L11.716 47.8C11.3493 47.7667 11.116 47.7 11.016 47.6C10.9493 47.5 10.916 47.3667 10.916 47.2C10.916 47 10.916 46.8667 10.916 46.8L10.866 44.15C10.866 43.6833 10.8493 43.2833 10.816 42.95L10.766 39.55C10.766 39.05 10.7827 38.55 10.816 38.05C10.8827 37.5167 10.916 37.1333 10.916 36.9C11.016 36.1333 11.066 35.2667 11.066 34.3L11.016 28.6L11.066 25.3C11.1327 23.7667 11.166 22.6 11.166 21.8C11.166 19.9333 11.1327 17.6333 11.066 14.9C11.066 14.3 11.1327 13.9 11.266 13.7C11.4327 13.5 11.666 13.4 11.966 13.4C12.166 13.4 12.366 13.4167 12.566 13.45C12.7993 13.4833 13.066 13.5 13.366 13.5L17.166 13.4L20.366 13.3C20.766 13.3 21.216 13.2833 21.716 13.25C22.216 13.2167 22.716 13.1833 23.216 13.15C24.3494 13.05 25.2827 13 26.016 13L30.216 13.05C30.9827 13.05 31.366 13.3 31.366 13.8V16.3C31.366 16.6 31.2994 16.7833 31.166 16.85C31.066 16.8833 30.8327 16.9 30.466 16.9C30.0327 16.9 29.6494 16.8833 29.316 16.85L26.116 16.8C24.8494 16.8 23.616 16.8667 22.416 17L19.966 17.15L19.816 18.05C19.7493 18.7833 19.716 19.3667 19.716 19.8L19.666 24.25L19.616 26.8V28C20.316 28 20.8327 27.9833 21.166 27.95L23.566 27.9L25.566 27.85C26.0327 27.8167 26.6827 27.8 27.516 27.8C28.0493 27.8 28.3993 27.8667 28.566 28C28.766 28.1333 28.866 28.35 28.866 28.65L28.816 30.3C28.816 30.5667 28.7327 30.75 28.566 30.85C28.4327 30.95 28.1327 31 27.666 31C27.066 31 26.566 30.9833 26.166 30.95L24.166 30.9H19.516C19.516 31.7667 19.5327 32.4 19.566 32.8L19.616 35.95L19.566 38.4C19.4993 39.4667 19.466 40.2833 19.466 40.85L19.516 46.75C19.516 47.1833 19.416 47.4833 19.216 47.65C19.0493 47.8167 18.766 47.9 18.366 47.9ZM54.0953 47.9C53.7286 47.9 53.4286 47.8833 53.1953 47.85C52.2953 47.75 50.4786 47.7 47.7453 47.7C46.0786 47.7 44.8786 47.7167 44.1453 47.75C43.5786 47.7833 42.6453 47.8 41.3453 47.8L36.6953 47.75C36.162 47.7167 35.5286 47.7 34.7953 47.7C34.3286 47.7 34.012 47.65 33.8453 47.55C33.712 47.4167 33.6453 47.2167 33.6453 46.95L33.6953 46.15C33.7286 46.0167 33.7453 45.8667 33.7453 45.7C33.7453 45.6 33.7286 45.3667 33.6953 45C33.662 44.6 33.6453 43.8833 33.6453 42.85C33.6453 41.85 33.612 40.2167 33.5453 37.95C33.4453 36.0833 33.3953 34.2833 33.3953 32.55C33.3953 31.8167 33.4786 29.7 33.6453 26.2C33.6786 25.5 33.712 24.8 33.7453 24.1C33.7786 23.4 33.7953 22.7667 33.7953 22.2C33.7953 18.3333 33.7453 15.7833 33.6453 14.55C33.5453 13.75 34.0286 13.35 35.0953 13.35C35.362 13.35 35.7953 13.3833 36.3953 13.45C36.9286 13.5167 37.3286 13.55 37.5953 13.55L40.7453 13.45C43.012 13.3167 44.762 13.25 45.9953 13.25C47.4286 13.25 49.4453 13.2833 52.0453 13.35C52.8786 13.3833 53.762 13.4 54.6953 13.4C55.0953 13.4 55.3453 13.5 55.4453 13.7C55.5453 13.9 55.5786 14.1167 55.5453 14.35C55.5453 14.55 55.5453 14.6833 55.5453 14.75V15.3C55.5453 16.0667 55.4786 16.45 55.3453 16.45C55.1453 16.45 54.912 16.4333 54.6453 16.4C54.412 16.3333 54.112 16.3 53.7453 16.3L39.5453 16.25C39.3453 16.25 38.5953 16.3 37.2953 16.4L36.1453 16.5L36.0453 17.85C36.012 18.35 35.9953 19.1333 35.9953 20.2C35.9953 20.7333 36.0286 21.4333 36.0953 22.3C36.162 23.1 36.1953 23.6833 36.1953 24.05V26.05C36.1953 26.5833 36.212 27 36.2453 27.3C36.5453 27.3333 36.9953 27.35 37.5953 27.35H39.5953C39.7953 27.35 40.1953 27.3167 40.7953 27.25C41.662 27.1833 42.412 27.15 43.0453 27.15C43.312 27.15 44.2453 27.2 45.8453 27.3L46.9453 27.35C47.212 27.35 47.5953 27.3333 48.0953 27.3C48.5953 27.2333 49.0786 27.2 49.5453 27.2L51.1953 27.25C52.062 27.3167 52.662 27.35 52.9953 27.35C53.362 27.35 53.612 27.3333 53.7453 27.3L54.0453 27.25C54.2786 27.25 54.4453 27.3333 54.5453 27.5C54.6453 27.6333 54.6786 27.7667 54.6453 27.9C54.612 28.1333 54.5953 28.4333 54.5953 28.8C54.5953 29.1333 54.5786 29.4333 54.5453 29.7C54.512 29.9667 54.462 30.1333 54.3953 30.2C54.3286 30.2333 54.1286 30.25 53.7953 30.25L51.7953 30.05C49.2953 29.8167 47.662 29.7 46.8953 29.7C44.062 29.7 41.9786 29.75 40.6453 29.85C40.112 29.9167 39.5286 29.95 38.8953 29.95C38.262 29.95 37.862 29.95 37.6953 29.95C37.062 29.95 36.5953 29.9333 36.2953 29.9L36.1453 30.7C36.0786 31.3 36.0453 31.8333 36.0453 32.3C36.0453 32.7 36.0786 33.1667 36.1453 33.7C36.212 34.2333 36.2453 34.7 36.2453 35.1L36.2953 41.05L36.2453 43.55C36.212 43.85 36.1953 44.2667 36.1953 44.8C36.6286 44.8333 37.262 44.85 38.0953 44.85C38.7953 44.8833 39.8786 44.9 41.3453 44.9L44.0453 44.95C44.612 44.9833 45.4786 45 46.6453 45C47.3453 45 48.262 44.9667 49.3953 44.9L51.4953 44.85C52.2953 44.85 52.962 44.8667 53.4953 44.9C54.0286 44.9333 54.4286 44.95 54.6953 44.95C54.962 44.95 55.112 45 55.1453 45.1C55.212 45.2 55.2453 45.4167 55.2453 45.75C55.2453 45.9833 55.2286 46.2333 55.1953 46.5C55.162 46.7333 55.1453 47 55.1453 47.3C55.1453 47.5333 55.062 47.7 54.8953 47.8C54.7286 47.8667 54.462 47.9 54.0953 47.9ZM96.959 49.1C92.1923 49.1 89.0257 47.1 87.459 43.1C85.8923 39.0667 85.109 34.75 85.109 30.15C85.109 25.7167 85.709 22.1667 86.909 19.5C88.1423 16.8333 89.6257 14.9667 91.359 13.9C93.1257 12.8333 94.8757 12.3 96.609 12.3C99.9423 12.3 102.442 13.2667 104.109 15.2C105.776 17.1 106.842 19.3667 107.309 22C107.776 24.6 108.009 27.55 108.009 30.85C108.009 33.5167 107.609 36.2667 106.809 39.1C106.009 41.9 104.776 44.2667 103.109 46.2C101.442 48.1333 99.3923 49.1 96.959 49.1ZM96.559 36.4C97.459 36.4 98.1257 35.9 98.559 34.9C98.9923 33.9 99.209 32.7 99.209 31.3C99.209 29.9667 98.9923 28.8 98.559 27.8C98.159 26.8 97.609 26.3 96.909 26.3C96.0757 26.3 95.4423 26.8833 95.009 28.05C94.609 29.1833 94.409 30.4167 94.409 31.75C94.409 33.1167 94.5423 34.2333 94.809 35.1C95.0757 35.9667 95.659 36.4 96.559 36.4ZM114.706 48.6C114.206 48.6 113.873 48.5 113.706 48.3C113.54 48.1333 113.44 47.9333 113.406 47.7C113.373 47.4667 113.34 47.3 113.306 47.2C113.173 46.6 113.106 45.8667 113.106 45C113.106 44.2 113.123 43.5167 113.156 42.95C113.156 41.2167 113.19 39.2 113.256 36.9C113.323 34.5667 113.406 32.9 113.506 31.9L113.756 28.35C114.156 22.8167 114.356 19.7 114.356 19C114.356 16.3667 114.406 14.4 114.506 13.1C114.573 12.2 115.04 11.75 115.906 11.75C116.173 11.75 116.423 11.7667 116.656 11.8C116.89 11.8333 117.073 11.85 117.206 11.85L121.456 11.8C122.19 11.8 122.723 11.8833 123.056 12.05C123.423 12.1833 123.706 12.4333 123.906 12.8C124.24 13.5 124.656 14.4 125.156 15.5L127.006 19.5L129.356 24.65C129.79 25.5833 130.356 26.8167 131.056 28.35C131.756 29.8833 132.256 30.95 132.556 31.55C133.123 32.7167 133.49 33.4333 133.656 33.7L135.056 36.45L136.606 39.5L136.506 36.6L136.306 31.7V30.2C136.306 28.3667 136.34 26.5167 136.406 24.65C136.406 23.25 136.39 22.1167 136.356 21.25L136.306 17.45L136.506 12.65C136.506 12.15 136.756 11.9 137.256 11.9C137.423 11.9 137.756 11.95 138.256 12.05C138.556 12.1167 138.873 12.15 139.206 12.15C139.54 12.15 139.806 12.15 140.006 12.15C140.273 12.15 140.44 12.1833 140.506 12.25C140.606 12.3167 140.656 12.4333 140.656 12.6C140.656 12.7333 140.64 12.8833 140.606 13.05C140.573 13.2167 140.556 13.4 140.556 13.6L140.506 17.9L140.406 28L140.356 29.45C140.356 30.5833 140.373 31.6167 140.406 32.55C140.44 33.4833 140.473 34.25 140.506 34.85C140.606 36.2833 140.656 37.4833 140.656 38.45C140.656 38.3167 140.706 40.3 140.806 44.4L140.906 47.2V47.3C140.906 47.9667 140.59 48.2667 139.956 48.2C139.856 48.1667 139.656 48.15 139.356 48.15L137.906 48.2H137.606C137.373 48.2 137.19 48.15 137.056 48.05C136.956 47.95 136.773 47.6667 136.506 47.2C136.406 46.9667 136.273 46.6333 136.106 46.2C135.94 45.7667 135.74 45.2833 135.506 44.75C134.073 41.15 133.04 38.7 132.406 37.4C131.673 36 129.823 31.9833 126.856 25.35C126.19 23.9833 125.44 22.5333 124.606 21L123.156 18.4L123.306 23.15L123.356 26.1C123.423 28.3 123.456 29.75 123.456 30.45C123.456 33.1833 123.506 35.9333 123.606 38.7L123.656 42.6C123.656 43.3 123.69 44.3167 123.756 45.65L123.856 47.4V47.5C123.856 47.8333 123.773 48.05 123.606 48.15C123.44 48.25 123.206 48.3 122.906 48.3L121.806 48.35C121.106 48.45 120.356 48.5 119.556 48.5C118.623 48.5 117.856 48.5167 117.256 48.55L114.706 48.6ZM159.695 47.7C151.762 47.7 147.495 43.9 146.895 36.3C146.862 35.9667 146.845 35.3 146.845 34.3C146.845 33.2667 146.879 31.45 146.945 28.85C147.045 25.85 147.079 23.6167 147.045 22.15C147.045 20.15 147.012 18.05 146.945 15.85C146.912 15.2167 146.895 14.5667 146.895 13.9C146.895 13.7667 146.879 13.5167 146.845 13.15C146.845 12.7833 146.912 12.5167 147.045 12.35C147.212 12.1833 147.495 12.1 147.895 12.1C148.462 12.1 148.895 12.1167 149.195 12.15L150.595 12.2C150.962 12.2 151.512 12.1667 152.245 12.1C152.979 12.0333 153.579 12 154.045 12L156.045 12.05C156.345 12.05 156.529 12.1333 156.595 12.3C156.695 12.4333 156.762 12.7 156.795 13.1V33.1C156.795 33.8333 156.829 34.4667 156.895 35C156.995 35.5333 157.245 36.05 157.645 36.55C158.079 37.0167 158.762 37.25 159.695 37.25C160.995 37.25 161.879 36.7667 162.345 35.8C162.812 34.8 163.045 33.7167 163.045 32.55L163.095 30.05C163.195 26.35 163.245 24.2833 163.245 23.85C163.245 22.9167 163.229 22.2833 163.195 21.95C163.195 20.7833 163.129 19 162.995 16.6L162.895 13.85C162.895 13.25 162.979 12.8333 163.145 12.6C163.312 12.3667 163.629 12.25 164.095 12.25H170.445L171.195 12.2C171.529 12.2 171.795 12.3 171.995 12.5C172.229 12.7 172.379 13.1 172.445 13.7C172.512 14.2667 172.545 16.2333 172.545 19.6L172.495 30.35C172.495 32.2167 172.195 34.4667 171.595 37.1C170.995 39.7 169.745 42.1167 167.845 44.35C165.945 46.5833 163.229 47.7 159.695 47.7ZM189.146 49.1C184.38 49.1 181.213 47.1 179.646 43.1C178.08 39.0667 177.296 34.75 177.296 30.15C177.296 25.7167 177.896 22.1667 179.096 19.5C180.33 16.8333 181.813 14.9667 183.546 13.9C185.313 12.8333 187.063 12.3 188.796 12.3C192.13 12.3 194.63 13.2667 196.296 15.2C197.963 17.1 199.03 19.3667 199.496 22C199.963 24.6 200.196 27.55 200.196 30.85C200.196 33.5167 199.796 36.2667 198.996 39.1C198.196 41.9 196.963 44.2667 195.296 46.2C193.63 48.1333 191.58 49.1 189.146 49.1ZM188.746 36.4C189.646 36.4 190.313 35.9 190.746 34.9C191.18 33.9 191.396 32.7 191.396 31.3C191.396 29.9667 191.18 28.8 190.746 27.8C190.346 26.8 189.796 26.3 189.096 26.3C188.263 26.3 187.63 26.8833 187.196 28.05C186.796 29.1833 186.596 30.4167 186.596 31.75C186.596 33.1167 186.73 34.2333 186.996 35.1C187.263 35.9667 187.846 36.4 188.746 36.4ZM206.294 48.55C206.06 48.55 205.91 48.45 205.844 48.25C205.777 48.05 205.727 47.8333 205.694 47.6C205.694 47.3667 205.694 47.2167 205.694 47.15C205.627 46.6167 205.594 45.8333 205.594 44.8C205.594 44.1333 205.61 43.6333 205.644 43.3C205.677 41.5 205.727 38.3667 205.794 33.9C205.86 29.4 205.894 25.3667 205.894 21.8C205.894 17.9667 205.844 15.7333 205.744 15.1C205.71 14.8333 205.694 14.4833 205.694 14.05C205.694 13.55 205.76 13.2333 205.894 13.1C206.06 12.9667 206.294 12.9 206.594 12.9C207.26 12.9 207.91 12.9167 208.544 12.95L213.994 13.05C215.994 13.05 218.077 13.4 220.244 14.1C222.41 14.8 223.494 16.1 223.494 18C223.494 19.8 222.827 21.2 221.494 22.2C220.16 23.2 218.66 23.8833 216.994 24.25C215.36 24.6167 213.927 24.8 212.694 24.8C212.26 24.8 212.027 24.7833 211.994 24.75C212.194 24.95 213.51 26.7167 215.944 30.05C223.277 39.8833 227.327 45.1833 228.094 45.95C228.994 46.85 229.444 47.4667 229.444 47.8C229.444 47.8667 229.36 47.9833 229.194 48.15C228.894 48.35 228.144 48.45 226.944 48.45C226.077 48.45 225.527 48.3833 225.294 48.25C225.06 48.15 224.877 47.9667 224.744 47.7C224.644 47.4333 224.56 47.2333 224.494 47.1C224.394 46.9 223.977 46.3333 223.244 45.4C222.544 44.4333 222.01 43.7 221.644 43.2C219.877 40.9333 218.344 38.8833 217.044 37.05C216.244 35.9167 214.76 33.9667 212.594 31.2L211.794 30.2L208.344 25.9L208.144 27.9C208.01 28.9 207.977 30.1 208.044 31.5C208.144 32.4333 208.21 34.85 208.244 38.75C208.277 42.65 208.294 45.5 208.294 47.3C208.294 47.8333 208.094 48.1667 207.694 48.3C207.294 48.4667 206.827 48.55 206.294 48.55ZM208.194 22.75C209.294 22.75 210.127 22.7333 210.694 22.7C212.627 22.6333 214.127 22.5 215.194 22.3C216.727 22.0333 217.877 21.6667 218.644 21.2C219.444 20.7333 219.844 20 219.844 19C219.844 18.3333 219.494 17.7667 218.794 17.3C218.094 16.8 217.244 16.4333 216.244 16.2C215.277 15.9333 214.427 15.8 213.694 15.8C212.86 15.7667 211.694 15.75 210.194 15.75H208.494L208.194 22.75ZM254.621 48.05C254.488 48.05 254.354 47.9333 254.221 47.7C254.088 47.4667 253.971 47.2333 253.871 47C253.771 46.7667 253.688 46.5667 253.621 46.4C253.454 46.0667 253.138 45.3 252.671 44.1C252.238 42.9 251.904 41.95 251.671 41.25C251.571 40.9167 251.371 40.4333 251.071 39.8C250.771 39.1333 250.554 38.6667 250.421 38.4C250.288 38 250.154 37.7333 250.021 37.6C249.921 37.4667 249.754 37.4 249.521 37.4C249.288 37.4 248.988 37.4167 248.621 37.45C248.288 37.4833 247.921 37.5167 247.521 37.55C247.254 37.6167 246.421 37.65 245.021 37.65C244.054 37.65 243.104 37.6833 242.171 37.75C241.871 37.7833 241.338 37.8 240.571 37.8L237.921 37.75C237.754 37.75 237.621 37.8167 237.521 37.95C237.454 38.0833 237.404 38.25 237.371 38.45C237.338 38.6167 237.304 38.75 237.271 38.85L236.971 40.1C236.871 40.5667 236.738 41.1167 236.571 41.75C236.438 42.35 236.321 42.9167 236.221 43.45L235.671 45.6L235.271 47.05C235.171 47.45 235.071 47.7167 234.971 47.85C234.904 47.95 234.788 48 234.621 48H231.671C231.504 48 231.421 47.9333 231.421 47.8C231.421 47.7333 231.488 47.5 231.621 47.1C231.888 46.4667 232.121 45.8333 232.321 45.2C233.554 41.0667 234.288 38.3667 234.521 37.1C234.821 35.4333 235.438 33.2833 236.371 30.65C236.671 29.5167 236.954 28.4833 237.221 27.55C237.321 27.0833 237.471 26.5167 237.671 25.85C238.304 23.5167 238.938 21.3333 239.571 19.3L240.821 15.3C241.088 14.2667 241.421 13.2 241.821 12.1C242.021 11.6 242.254 11.4833 242.521 11.75C242.721 11.8833 242.871 12.1167 242.971 12.45C243.071 12.7833 243.138 13.0167 243.171 13.15C243.271 13.55 244.154 15.55 245.821 19.15C246.488 20.5167 247.204 22.3 247.971 24.5C248.304 25.4667 249.221 27.55 250.721 30.75C251.488 32.3167 251.988 33.4 252.221 34C252.754 35.1667 254.188 38 256.521 42.5L257.121 43.75C257.888 45.45 258.471 46.5333 258.871 47C259.038 47.3333 259.121 47.55 259.121 47.65C259.121 47.9167 258.821 48.05 258.221 48.05H254.621ZM239.821 30.75C240.521 30.75 241.588 30.7333 243.021 30.7C244.488 30.6333 245.404 30.5667 245.771 30.5C246.004 30.4667 246.204 30.45 246.371 30.45C246.538 30.45 246.671 30.4333 246.771 30.4C246.871 30.3667 246.921 30.3167 246.921 30.25C246.921 30.1833 246.871 30.05 246.771 29.85C246.604 29.55 246.221 28.7167 245.621 27.35C245.021 25.95 244.604 24.9 244.371 24.2C244.038 23.4 243.771 22.7333 243.571 22.2C243.404 21.6667 243.271 21.3 243.171 21.1C243.104 20.9333 243.021 20.7667 242.921 20.6C242.854 20.4333 242.788 20.3 242.721 20.2C242.654 20.1 242.588 20.05 242.521 20.05C242.421 20.05 242.304 20.3 242.171 20.8C242.071 21.3 241.988 21.6833 241.921 21.95C241.321 23.8833 240.888 25.35 240.621 26.35C240.488 26.85 240.288 27.4667 240.021 28.2C239.788 28.9 239.621 29.3833 239.521 29.65C239.421 29.9833 239.371 30.25 239.371 30.45C239.371 30.65 239.521 30.75 239.821 30.75ZM289.491 12.65C289.825 12.75 289.991 12.9167 289.991 13.15L289.891 13.55C289.858 13.7833 289.808 14.2333 289.741 14.9C289.675 15.5333 289.575 16.5167 289.441 17.85C289.341 18.85 289.258 21.1333 289.191 24.7C289.125 28.2333 289.091 31 289.091 33C289.091 34.4 289.025 36.8333 288.891 40.3L288.791 43.6L288.741 45.6C288.741 46.1 288.775 46.5833 288.841 47.05L288.891 47.35C288.891 47.55 288.808 47.6667 288.641 47.7C288.508 47.7 288.425 47.7 288.391 47.7C288.058 47.7667 287.458 47.8 286.591 47.8C286.325 47.8 286.191 47.6667 286.191 47.4L286.241 40C286.208 39.4667 286.191 38.9167 286.191 38.35C286.225 37.75 286.241 37.2167 286.241 36.75V34.65V30.95L282.191 31.05C280.758 31.0833 278.825 31.1 276.391 31.1H271.691C270.425 31.1 269.441 31.0833 268.741 31.05C268.741 31.6167 268.725 32.05 268.691 32.35C268.625 33.4167 268.591 34.4333 268.591 35.4L268.541 40.8C268.541 43.4333 268.625 45.1667 268.791 46C268.858 46.4 268.891 46.65 268.891 46.75C268.891 47.2167 268.758 47.5167 268.491 47.65C268.258 47.75 267.991 47.8 267.691 47.8C267.425 47.7667 267.241 47.75 267.141 47.75C265.975 47.6833 264.641 47.7333 263.141 47.9C262.575 47.9667 262.225 47.8333 262.091 47.5C261.991 47.1667 261.941 46.7 261.941 46.1C261.975 45.5 261.991 45.05 261.991 44.75L261.891 27.45L261.991 14.5C261.991 13.8333 262.058 13.4167 262.191 13.25C262.358 13.05 262.608 12.95 262.941 12.95L264.041 13C264.208 13 264.591 12.9667 265.191 12.9C265.358 12.8667 265.641 12.85 266.041 12.85L267.341 12.9C267.608 12.9333 267.975 12.95 268.441 12.95C268.808 12.95 269.025 13.0667 269.091 13.3C269.191 13.5 269.225 13.7167 269.191 13.95C269.191 14.1833 269.191 14.35 269.191 14.45C269.191 15.9833 269.125 17.9667 268.991 20.4L268.791 25.35L268.641 28.3L271.641 28.4L273.491 28.45C275.091 28.5167 276.208 28.55 276.841 28.55C279.441 28.55 281.425 28.5333 282.791 28.5C284.425 28.5 285.675 28.4833 286.541 28.45V26.95L286.491 24.2C286.491 22.9333 286.558 20.3333 286.691 16.4L286.791 12.9C286.825 12.6 287.008 12.45 287.341 12.45L287.891 12.5C288.025 12.5333 288.275 12.55 288.641 12.55C289.041 12.55 289.325 12.5833 289.491 12.65ZM286.191 47.3V47.4V47.3Z" fill="#EBEBE3"/>
<path fill-rule="evenodd" clip-rule="evenodd" d="M67.8118 23.1046C67.3254 23.5749 66.2564 23.2726 65.5602 23.2726C64.1435 23.2726 62.6783 23.3658 61.6067 24.4375C61.338 24.7063 61.1575 25.1705 61.0772 25.5318C60.9709 26.0097 60.8128 26.5219 60.936 27.0143C61.3477 28.6613 63.5786 29.1579 64.2894 30.5795C64.58 31.1606 63.1938 31.628 62.9128 31.815C61.1644 32.9778 60.9838 34.479 61.1125 35.3802C61.3389 36.9649 62.5541 38.2941 64.1482 38.5218C65.1542 38.6655 66.1886 38.1947 67.1133 37.8864C67.8861 37.6288 69.0259 36.7071 69.902 37.1451C70.6884 37.5384 71.474 38.5054 72.0905 39.1219C72.6512 39.6825 73.9715 39.5875 74.6673 39.5102C75.0223 39.4707 75.4875 39.3289 75.7969 39.1219C78.4696 37.3329 75.7946 35.115 75.8322 34.7448C75.8937 34.1376 77.1781 34.4138 78.0912 34.1094C79.8427 33.5256 81.1526 31.5516 80.6329 29.7323C80.2864 28.5199 79.0284 27.9032 77.95 27.5438C77.5072 27.3962 76.1364 27.5742 75.9381 26.979C75.8223 26.6317 76.1014 24.1778 76.0247 23.395C75.7351 20.4385 72.646 19.5989 70.6793 20.1661C69.1722 20.6006 68.4561 22.4814 67.8118 23.1046Z" fill="#B91C4F" stroke="#150B0A" stroke-miterlimit="1.5" stroke-linecap="round" stroke-linejoin="round"/>
</svg>
