<svg width="37" height="37" viewBox="0 0 37 37" fill="none" xmlns="http://www.w3.org/2000/svg">
<path fill-rule="evenodd" clip-rule="evenodd" d="M13.1985 6.55259C12.3412 7.39376 10.457 6.85318 9.22978 6.85318C6.73279 6.85318 4.15011 7.01983 2.26128 8.93664C1.78761 9.41727 1.46959 10.2476 1.32797 10.8938C1.14068 11.7486 0.862049 12.6646 1.07909 13.5453C1.80479 16.491 5.73705 17.3791 6.98984 19.9217C7.50206 20.961 5.0587 21.7971 4.56345 22.1315C1.48174 24.2111 1.16331 26.8962 1.39019 28.5079C1.78928 31.3422 3.93118 33.7194 6.74096 34.1267C8.51414 34.3837 10.3374 33.5417 11.9673 32.9903C13.3294 32.5297 15.3385 30.8811 16.8827 31.6645C18.269 32.3679 19.6535 34.0974 20.7402 35.2C21.7286 36.2028 24.0557 36.0327 25.2821 35.8945C25.9079 35.824 26.7278 35.5704 27.2731 35.2C31.9841 32.0003 27.2692 28.0337 27.3354 27.3715C27.4439 26.2854 29.7077 26.7795 31.3173 26.2351C34.4044 25.1909 36.7133 21.6604 35.7972 18.4065C35.1865 16.238 32.9692 15.1352 31.0684 14.4923C30.2878 14.2283 27.8717 14.5467 27.522 13.4822C27.318 12.861 27.8099 8.47216 27.6748 7.07213C27.1642 1.78429 21.7194 0.282642 18.2528 1.29706C15.5964 2.07424 14.3342 5.43805 13.1985 6.55259Z" fill="#B91C4F" stroke="#EBEBE3" stroke-miterlimit="1.5" stroke-linecap="round" stroke-linejoin="round"/>
<path d="M12.7492 24.6747C12.7038 24.6747 12.6302 24.6747 12.5282 24.6747C12.4375 24.6747 12.3808 24.6633 12.3582 24.6407C12.3355 24.618 12.3242 24.5727 12.3242 24.5047L12.3412 23.9607L12.3752 21.7337L12.4092 18.1637C12.4092 17.8237 12.4318 17.053 12.4772 15.8517C12.4885 15.5683 12.5055 15.1093 12.5282 14.4747C12.5508 13.8287 12.5508 13.449 12.5282 13.3357L12.5112 12.9787C12.5112 12.684 12.6018 12.5367 12.7832 12.5367L13.4122 12.5537C13.5255 12.5537 13.5822 12.633 13.5822 12.7917C13.5822 12.8483 13.5765 12.9163 13.5652 12.9957C13.5538 13.0637 13.5482 13.1317 13.5482 13.1997C13.5142 13.449 13.4858 14.0893 13.4632 15.1207C13.4632 15.438 13.4405 16.2427 13.3952 17.5347C13.3498 18.7813 13.3272 19.5407 13.3272 19.8127C13.3272 20.47 13.3385 21.303 13.3612 22.3117C13.3838 23.309 13.4065 23.904 13.4292 24.0967C13.4405 24.1647 13.4462 24.244 13.4462 24.3347C13.4462 24.414 13.4292 24.4707 13.3952 24.5047C13.3725 24.5387 13.3328 24.5727 13.2762 24.6067C13.2082 24.652 13.0325 24.6747 12.7492 24.6747Z" fill="white"/>
<path d="M19.9103 24.9297C18.2896 24.9297 17.2129 24.2497 16.6803 22.8897C16.1476 21.5183 15.8813 20.0507 15.8813 18.4867C15.8813 16.9793 16.0853 15.7723 16.4933 14.8657C16.9126 13.959 17.4169 13.3243 18.0063 12.9617C18.6069 12.599 19.2019 12.4177 19.7913 12.4177C20.9246 12.4177 21.7746 12.7463 22.3413 13.4037C22.9079 14.0497 23.2706 14.8203 23.4293 15.7157C23.5879 16.5997 23.6673 17.6027 23.6673 18.7247C23.6673 19.6313 23.5313 20.5663 23.2593 21.5297C22.9873 22.4817 22.5679 23.2863 22.0013 23.9437C21.4346 24.601 20.7376 24.9297 19.9103 24.9297ZM19.7743 20.6117C20.0803 20.6117 20.3069 20.4417 20.4543 20.1017C20.6016 19.7617 20.6753 19.3537 20.6753 18.8777C20.6753 18.4243 20.6016 18.0277 20.4543 17.6877C20.3183 17.3477 20.1313 17.1777 19.8933 17.1777C19.6099 17.1777 19.3946 17.376 19.2473 17.7727C19.1113 18.158 19.0433 18.5773 19.0433 19.0307C19.0433 19.4953 19.0886 19.875 19.1793 20.1697C19.2699 20.4643 19.4683 20.6117 19.7743 20.6117Z" fill="white"/>
</svg>
