<svg width="32" height="32" viewBox="0 0 32 32" fill="none" xmlns="http://www.w3.org/2000/svg">
<path fill-rule="evenodd" clip-rule="evenodd" d="M11.6204 5.76425C10.8741 6.48599 9.23361 6.02216 8.16514 6.02216C5.99117 6.02216 3.74259 6.16516 2.09811 7.80982C1.68572 8.22222 1.40884 8.93465 1.28554 9.48914C1.12248 10.2225 0.879895 11.0085 1.06886 11.7642C1.70068 14.2916 5.12424 15.0537 6.21497 17.2353C6.66093 18.127 4.53365 18.8444 4.10246 19.1313C1.41942 20.9157 1.14218 23.2195 1.33971 24.6024C1.68718 27.0343 3.55199 29.074 5.99828 29.4235C7.54208 29.644 9.12947 28.9216 10.5485 28.4484C11.7344 28.0532 13.4836 26.6387 14.8281 27.3108C16.035 27.9144 17.2404 29.3983 18.1865 30.3444C19.047 31.2048 21.0731 31.0589 22.1408 30.9403C22.6857 30.8798 23.3996 30.6622 23.8743 30.3444C27.9759 27.599 23.8709 24.1955 23.9285 23.6273C24.023 22.6955 25.9939 23.1194 27.3953 22.6523C30.0831 21.7563 32.0933 18.7271 31.2956 15.9352C30.764 14.0746 28.8335 13.1283 27.1786 12.5767C26.499 12.3502 24.3954 12.6234 24.091 11.71C23.9134 11.177 24.3416 7.41129 24.224 6.21003C23.7795 1.67294 19.039 0.384491 16.0209 1.25488C13.7081 1.92172 12.6092 4.80795 11.6204 5.76425Z" fill="#B91C4F" stroke="#150B0A" stroke-miterlimit="1.5" stroke-linecap="round" stroke-linejoin="round"/>
<path d="M11.966 22.098C11.9287 22.098 11.868 22.098 11.784 22.098C11.7093 22.098 11.6627 22.0887 11.644 22.07C11.6253 22.0513 11.616 22.014 11.616 21.958L11.63 21.51L11.658 19.676L11.686 16.736C11.686 16.456 11.7047 15.8213 11.742 14.832C11.7513 14.5987 11.7653 14.2207 11.784 13.698C11.8027 13.166 11.8027 12.8533 11.784 12.76L11.77 12.466C11.77 12.2233 11.8447 12.102 11.994 12.102L12.512 12.116C12.6053 12.116 12.652 12.1813 12.652 12.312C12.652 12.3587 12.6473 12.4147 12.638 12.48C12.6287 12.536 12.624 12.592 12.624 12.648C12.596 12.8533 12.5727 13.3807 12.554 14.23C12.554 14.4913 12.5353 15.154 12.498 16.218C12.4607 17.2447 12.442 17.87 12.442 18.094C12.442 18.6353 12.4513 19.3213 12.47 20.152C12.4887 20.9733 12.5073 21.4633 12.526 21.622C12.5353 21.678 12.54 21.7433 12.54 21.818C12.54 21.8833 12.526 21.93 12.498 21.958C12.4793 21.986 12.4467 22.014 12.4 22.042C12.344 22.0793 12.1993 22.098 11.966 22.098Z" fill="white"/>
<path d="M17.395 22.308C16.0603 22.308 15.1736 21.748 14.735 20.628C14.2963 19.4987 14.077 18.29 14.077 17.002C14.077 15.7607 14.245 14.7667 14.581 14.02C14.9263 13.2733 15.3416 12.7507 15.827 12.452C16.3216 12.1533 16.8116 12.004 17.297 12.004C18.2303 12.004 18.9303 12.2747 19.397 12.816C19.8636 13.348 20.1623 13.9827 20.293 14.72C20.4236 15.448 20.489 16.274 20.489 17.198C20.489 17.9447 20.377 18.7147 20.153 19.508C19.929 20.292 19.5836 20.9547 19.117 21.496C18.6503 22.0373 18.0763 22.308 17.395 22.308ZM17.283 18.752C17.535 18.752 17.7216 18.612 17.843 18.332C17.9643 18.052 18.025 17.716 18.025 17.324C18.025 16.9507 17.9643 16.624 17.843 16.344C17.731 16.064 17.577 15.924 17.381 15.924C17.1476 15.924 16.9703 16.0873 16.849 16.414C16.737 16.7313 16.681 17.0767 16.681 17.45C16.681 17.8327 16.7183 18.1453 16.793 18.388C16.8676 18.6307 17.031 18.752 17.283 18.752Z" fill="white"/>
</svg>
