<svg width="147" height="29" viewBox="0 0 147 29" fill="none" xmlns="http://www.w3.org/2000/svg">
<path d="M1.656 23.168C1.592 23.168 1.488 23.168 1.344 23.168C1.216 23.168 1.136 23.152 1.104 23.12C1.072 23.088 1.056 23.024 1.056 22.928L1.08 22.16L1.128 19.016L1.176 13.976C1.176 13.496 1.208 12.408 1.272 10.712C1.288 10.312 1.312 9.664 1.344 8.768C1.376 7.856 1.376 7.32 1.344 7.16L1.32 6.656C1.32 6.24 1.448 6.032 1.704 6.032L2.592 6.056C2.752 6.056 2.832 6.168 2.832 6.392C2.832 6.472 2.824 6.568 2.808 6.68C2.792 6.776 2.784 6.872 2.784 6.968C2.736 7.32 2.696 8.224 2.664 9.68C2.664 10.128 2.632 11.264 2.568 13.088C2.504 14.848 2.472 15.92 2.472 16.304C2.472 17.232 2.488 18.408 2.52 19.832C2.552 21.24 2.584 22.08 2.616 22.352C2.632 22.448 2.64 22.56 2.64 22.688C2.64 22.8 2.616 22.88 2.568 22.928C2.536 22.976 2.48 23.024 2.4 23.072C2.304 23.136 2.056 23.168 1.656 23.168ZM8.81569 22.952C8.73569 22.952 8.55169 22.936 8.26369 22.904C8.11969 22.888 7.82369 22.88 7.37569 22.88L5.62369 22.904C5.44769 22.888 5.33569 22.856 5.28769 22.808C5.25569 22.76 5.23969 22.696 5.23969 22.616C5.23969 22.52 5.23969 22.456 5.23969 22.424L5.21569 21.152C5.21569 20.928 5.20769 20.736 5.19169 20.576L5.16769 18.944C5.16769 18.704 5.17569 18.464 5.19169 18.224C5.22369 17.968 5.23969 17.784 5.23969 17.672C5.28769 17.304 5.31169 16.888 5.31169 16.424L5.28769 13.688L5.31169 12.104C5.34369 11.368 5.35969 10.808 5.35969 10.424C5.35969 9.528 5.34369 8.424 5.31169 7.112C5.31169 6.824 5.34369 6.632 5.40769 6.536C5.48769 6.44 5.59969 6.392 5.74369 6.392C5.83969 6.392 5.93569 6.4 6.03169 6.416C6.14369 6.432 6.27169 6.44 6.41569 6.44L8.23969 6.392L9.77569 6.344C9.96769 6.344 10.1837 6.336 10.4237 6.32C10.6637 6.304 10.9037 6.288 11.1437 6.272C11.6877 6.224 12.1357 6.2 12.4877 6.2L14.5037 6.224C14.8717 6.224 15.0557 6.344 15.0557 6.584V7.784C15.0557 7.928 15.0237 8.016 14.9597 8.048C14.9117 8.064 14.7997 8.072 14.6237 8.072C14.4157 8.072 14.2317 8.064 14.0717 8.048L12.5357 8.024C11.9277 8.024 11.3357 8.056 10.7597 8.12L9.58369 8.192L9.51169 8.624C9.47969 8.976 9.46369 9.256 9.46369 9.464L9.43969 11.6L9.41569 12.824V13.4C9.75169 13.4 9.99969 13.392 10.1597 13.376L11.3117 13.352L12.2717 13.328C12.4957 13.312 12.8077 13.304 13.2077 13.304C13.4637 13.304 13.6317 13.336 13.7117 13.4C13.8077 13.464 13.8557 13.568 13.8557 13.712L13.8317 14.504C13.8317 14.632 13.7917 14.72 13.7117 14.768C13.6477 14.816 13.5037 14.84 13.2797 14.84C12.9917 14.84 12.7517 14.832 12.5597 14.816L11.5997 14.792H9.36769C9.36769 15.208 9.37569 15.512 9.39169 15.704L9.41569 17.216L9.39169 18.392C9.35969 18.904 9.34369 19.296 9.34369 19.568L9.36769 22.4C9.36769 22.608 9.31969 22.752 9.22369 22.832C9.14369 22.912 9.00769 22.952 8.81569 22.952ZM25.9658 22.952C25.7898 22.952 25.6458 22.944 25.5338 22.928C25.1018 22.88 24.2298 22.856 22.9178 22.856C22.1178 22.856 21.5418 22.864 21.1898 22.88C20.9178 22.896 20.4698 22.904 19.8458 22.904L17.6138 22.88C17.3578 22.864 17.0538 22.856 16.7018 22.856C16.4778 22.856 16.3258 22.832 16.2458 22.784C16.1818 22.72 16.1498 22.624 16.1498 22.496L16.1738 22.112C16.1898 22.048 16.1978 21.976 16.1978 21.896C16.1978 21.848 16.1898 21.736 16.1738 21.56C16.1578 21.368 16.1498 21.024 16.1498 20.528C16.1498 20.048 16.1338 19.264 16.1018 18.176C16.0538 17.28 16.0298 16.416 16.0298 15.584C16.0298 15.232 16.0698 14.216 16.1498 12.536C16.1658 12.2 16.1818 11.864 16.1978 11.528C16.2138 11.192 16.2218 10.888 16.2218 10.616C16.2218 8.76 16.1978 7.536 16.1498 6.944C16.1018 6.56 16.3338 6.368 16.8458 6.368C16.9738 6.368 17.1818 6.384 17.4698 6.416C17.7258 6.448 17.9178 6.464 18.0458 6.464L19.5578 6.416C20.6458 6.352 21.4858 6.32 22.0778 6.32C22.7658 6.32 23.7338 6.336 24.9818 6.368C25.3818 6.384 25.8058 6.392 26.2538 6.392C26.4458 6.392 26.5658 6.44 26.6138 6.536C26.6618 6.632 26.6778 6.736 26.6618 6.848C26.6618 6.944 26.6618 7.008 26.6618 7.04V7.304C26.6618 7.672 26.6298 7.856 26.5658 7.856C26.4698 7.856 26.3578 7.848 26.2298 7.832C26.1178 7.8 25.9738 7.784 25.7978 7.784L18.9818 7.76C18.8858 7.76 18.5258 7.784 17.9018 7.832L17.3498 7.88L17.3018 8.528C17.2858 8.768 17.2778 9.144 17.2778 9.656C17.2778 9.912 17.2938 10.248 17.3258 10.664C17.3578 11.048 17.3738 11.328 17.3738 11.504V12.464C17.3738 12.72 17.3818 12.92 17.3978 13.064C17.5418 13.08 17.7578 13.088 18.0458 13.088H19.0058C19.1018 13.088 19.2938 13.072 19.5818 13.04C19.9978 13.008 20.3578 12.992 20.6618 12.992C20.7898 12.992 21.2378 13.016 22.0058 13.064L22.5338 13.088C22.6618 13.088 22.8458 13.08 23.0858 13.064C23.3258 13.032 23.5578 13.016 23.7818 13.016L24.5738 13.04C24.9898 13.072 25.2778 13.088 25.4378 13.088C25.6138 13.088 25.7338 13.08 25.7978 13.064L25.9418 13.04C26.0538 13.04 26.1338 13.08 26.1818 13.16C26.2298 13.224 26.2458 13.288 26.2298 13.352C26.2138 13.464 26.2058 13.608 26.2058 13.784C26.2058 13.944 26.1978 14.088 26.1818 14.216C26.1658 14.344 26.1418 14.424 26.1098 14.456C26.0778 14.472 25.9818 14.48 25.8218 14.48L24.8618 14.384C23.6618 14.272 22.8778 14.216 22.5098 14.216C21.1498 14.216 20.1498 14.24 19.5098 14.288C19.2538 14.32 18.9738 14.336 18.6698 14.336C18.3658 14.336 18.1738 14.336 18.0938 14.336C17.7898 14.336 17.5658 14.328 17.4218 14.312L17.3498 14.696C17.3178 14.984 17.3018 15.24 17.3018 15.464C17.3018 15.656 17.3178 15.88 17.3498 16.136C17.3818 16.392 17.3978 16.616 17.3978 16.808L17.4218 19.664L17.3978 20.864C17.3818 21.008 17.3738 21.208 17.3738 21.464C17.5818 21.48 17.8858 21.488 18.2858 21.488C18.6218 21.504 19.1418 21.512 19.8458 21.512L21.1418 21.536C21.4138 21.552 21.8298 21.56 22.3898 21.56C22.7258 21.56 23.1658 21.544 23.7098 21.512L24.7178 21.488C25.1018 21.488 25.4218 21.496 25.6778 21.512C25.9338 21.528 26.1258 21.536 26.2538 21.536C26.3818 21.536 26.4538 21.56 26.4698 21.608C26.5018 21.656 26.5178 21.76 26.5178 21.92C26.5178 22.032 26.5098 22.152 26.4938 22.28C26.4778 22.392 26.4698 22.52 26.4698 22.664C26.4698 22.776 26.4298 22.856 26.3498 22.904C26.2698 22.936 26.1418 22.952 25.9658 22.952Z" fill="#EBEBE3"/>
<path fill-rule="evenodd" clip-rule="evenodd" d="M35.4382 11.1865C35.1965 11.4198 34.6655 11.2699 34.3196 11.2699C33.6158 11.2699 32.8879 11.3161 32.3555 11.8477C32.222 11.981 32.1324 12.2113 32.0924 12.3905C32.0397 12.6276 31.9611 12.8816 32.0223 13.1259C32.2268 13.9428 33.3351 14.1891 33.6882 14.8943C33.8326 15.1825 33.1439 15.4144 33.0044 15.5072C32.1358 16.0839 32.046 16.8286 32.11 17.2756C32.2225 18.0617 32.8262 18.721 33.6181 18.8339C34.1179 18.9052 34.6318 18.6717 35.0911 18.5188C35.4751 18.391 36.0413 17.9338 36.4766 18.151C36.8673 18.3461 37.2575 18.8258 37.5638 19.1316C37.8424 19.4097 38.4983 19.3625 38.8439 19.3242C39.0203 19.3046 39.2514 19.2343 39.4051 19.1316C40.7329 18.2442 39.404 17.1441 39.4227 16.9604C39.4532 16.6592 40.0913 16.7962 40.545 16.6452C41.4151 16.3557 42.0658 15.3765 41.8076 14.4741C41.6355 13.8727 41.0105 13.5668 40.4748 13.3885C40.2548 13.3153 39.5738 13.4036 39.4753 13.1084C39.4177 12.9361 39.5564 11.7189 39.5183 11.3306C39.3744 9.86405 37.8398 9.44759 36.8627 9.72892C36.114 9.94447 35.7583 10.8774 35.4382 11.1865Z" fill="#B91C4F" stroke="#EBEBE3" stroke-miterlimit="1.5" stroke-linecap="round" stroke-linejoin="round"/>
<path d="M52.5848 23.528C50.2968 23.528 48.7768 22.568 48.0248 20.648C47.2728 18.712 46.8968 16.64 46.8968 14.432C46.8968 12.304 47.1848 10.6 47.7608 9.32C48.3528 8.04 49.0648 7.144 49.8968 6.632C50.7448 6.12 51.5848 5.864 52.4168 5.864C54.0168 5.864 55.2168 6.328 56.0168 7.256C56.8168 8.168 57.3288 9.256 57.5528 10.52C57.7768 11.768 57.8888 13.184 57.8888 14.768C57.8888 16.048 57.6968 17.368 57.3128 18.728C56.9288 20.072 56.3368 21.208 55.5368 22.136C54.7368 23.064 53.7528 23.528 52.5848 23.528ZM52.3928 17.432C52.8248 17.432 53.1448 17.192 53.3528 16.712C53.5608 16.232 53.6648 15.656 53.6648 14.984C53.6648 14.344 53.5608 13.784 53.3528 13.304C53.1608 12.824 52.8968 12.584 52.5608 12.584C52.1608 12.584 51.8568 12.864 51.6488 13.424C51.4568 13.968 51.3608 14.56 51.3608 15.2C51.3608 15.856 51.4248 16.392 51.5528 16.808C51.6808 17.224 51.9608 17.432 52.3928 17.432ZM61.1035 23.288C60.8635 23.288 60.7035 23.24 60.6235 23.144C60.5435 23.064 60.4955 22.968 60.4795 22.856C60.4635 22.744 60.4475 22.664 60.4315 22.616C60.3675 22.328 60.3355 21.976 60.3355 21.56C60.3355 21.176 60.3435 20.848 60.3595 20.576C60.3595 19.744 60.3755 18.776 60.4075 17.672C60.4395 16.552 60.4795 15.752 60.5275 15.272L60.6475 13.568C60.8395 10.912 60.9355 9.416 60.9355 9.08C60.9355 7.816 60.9595 6.872 61.0075 6.248C61.0395 5.816 61.2635 5.6 61.6795 5.6C61.8075 5.6 61.9275 5.608 62.0395 5.624C62.1515 5.64 62.2395 5.648 62.3035 5.648L64.3435 5.624C64.6955 5.624 64.9515 5.664 65.1115 5.744C65.2875 5.808 65.4235 5.928 65.5195 6.104C65.6795 6.44 65.8795 6.872 66.1195 7.4L67.0075 9.32L68.1355 11.792C68.3435 12.24 68.6155 12.832 68.9515 13.568C69.2875 14.304 69.5275 14.816 69.6715 15.104C69.9435 15.664 70.1195 16.008 70.1995 16.136L70.8715 17.456L71.6155 18.92L71.5675 17.528L71.4715 15.176V14.456C71.4715 13.576 71.4875 12.688 71.5195 11.792C71.5195 11.12 71.5115 10.576 71.4955 10.16L71.4715 8.336L71.5675 6.032C71.5675 5.792 71.6875 5.672 71.9275 5.672C72.0075 5.672 72.1675 5.696 72.4075 5.744C72.5515 5.776 72.7035 5.792 72.8635 5.792C73.0235 5.792 73.1515 5.792 73.2475 5.792C73.3755 5.792 73.4555 5.808 73.4875 5.84C73.5355 5.872 73.5595 5.928 73.5595 6.008C73.5595 6.072 73.5515 6.144 73.5355 6.224C73.5195 6.304 73.5115 6.392 73.5115 6.488L73.4875 8.552L73.4395 13.4L73.4155 14.096C73.4155 14.64 73.4235 15.136 73.4395 15.584C73.4555 16.032 73.4715 16.4 73.4875 16.688C73.5355 17.376 73.5595 17.952 73.5595 18.416C73.5595 18.352 73.5835 19.304 73.6315 21.272L73.6795 22.616V22.664C73.6795 22.984 73.5275 23.128 73.2235 23.096C73.1755 23.08 73.0795 23.072 72.9355 23.072L72.2395 23.096H72.0955C71.9835 23.096 71.8955 23.072 71.8315 23.024C71.7835 22.976 71.6955 22.84 71.5675 22.616C71.5195 22.504 71.4555 22.344 71.3755 22.136C71.2955 21.928 71.1995 21.696 71.0875 21.44C70.3995 19.712 69.9035 18.536 69.5995 17.912C69.2475 17.24 68.3595 15.312 66.9355 12.128C66.6155 11.472 66.2555 10.776 65.8555 10.04L65.1595 8.792L65.2315 11.072L65.2555 12.488C65.2875 13.544 65.3035 14.24 65.3035 14.576C65.3035 15.888 65.3275 17.208 65.3755 18.536L65.3995 20.408C65.3995 20.744 65.4155 21.232 65.4475 21.872L65.4955 22.712V22.76C65.4955 22.92 65.4555 23.024 65.3755 23.072C65.2955 23.12 65.1835 23.144 65.0395 23.144L64.5115 23.168C64.1755 23.216 63.8155 23.24 63.4315 23.24C62.9835 23.24 62.6155 23.248 62.3275 23.264L61.1035 23.288ZM82.6982 22.856C78.8902 22.856 76.8422 21.032 76.5542 17.384C76.5382 17.224 76.5302 16.904 76.5302 16.424C76.5302 15.928 76.5462 15.056 76.5782 13.808C76.6262 12.368 76.6422 11.296 76.6262 10.592C76.6262 9.632 76.6102 8.624 76.5782 7.568C76.5622 7.264 76.5542 6.952 76.5542 6.632C76.5542 6.568 76.5462 6.448 76.5302 6.272C76.5302 6.096 76.5622 5.968 76.6262 5.888C76.7062 5.808 76.8422 5.768 77.0342 5.768C77.3062 5.768 77.5142 5.776 77.6582 5.792L78.3302 5.816C78.5062 5.816 78.7702 5.8 79.1222 5.768C79.4742 5.736 79.7622 5.72 79.9862 5.72L80.9462 5.744C81.0902 5.744 81.1782 5.784 81.2102 5.864C81.2582 5.928 81.2902 6.056 81.3062 6.248V15.848C81.3062 16.2 81.3222 16.504 81.3542 16.76C81.4022 17.016 81.5222 17.264 81.7142 17.504C81.9222 17.728 82.2502 17.84 82.6982 17.84C83.3222 17.84 83.7462 17.608 83.9702 17.144C84.1942 16.664 84.3062 16.144 84.3062 15.584L84.3302 14.384C84.3782 12.608 84.4022 11.616 84.4022 11.408C84.4022 10.96 84.3942 10.656 84.3782 10.496C84.3782 9.936 84.3462 9.08 84.2822 7.928L84.2342 6.608C84.2342 6.32 84.2742 6.12 84.3542 6.008C84.4342 5.896 84.5862 5.84 84.8102 5.84H87.8582L88.2182 5.816C88.3782 5.816 88.5062 5.864 88.6022 5.96C88.7142 6.056 88.7862 6.248 88.8182 6.536C88.8502 6.808 88.8662 7.752 88.8662 9.368L88.8422 14.528C88.8422 15.424 88.6982 16.504 88.4102 17.768C88.1222 19.016 87.5222 20.176 86.6102 21.248C85.6982 22.32 84.3942 22.856 82.6982 22.856ZM96.8348 23.528C94.5468 23.528 93.0268 22.568 92.2748 20.648C91.5228 18.712 91.1468 16.64 91.1468 14.432C91.1468 12.304 91.4348 10.6 92.0108 9.32C92.6028 8.04 93.3148 7.144 94.1468 6.632C94.9948 6.12 95.8348 5.864 96.6668 5.864C98.2668 5.864 99.4668 6.328 100.267 7.256C101.067 8.168 101.579 9.256 101.803 10.52C102.027 11.768 102.139 13.184 102.139 14.768C102.139 16.048 101.947 17.368 101.563 18.728C101.179 20.072 100.587 21.208 99.7868 22.136C98.9868 23.064 98.0028 23.528 96.8348 23.528ZM96.6428 17.432C97.0748 17.432 97.3948 17.192 97.6028 16.712C97.8108 16.232 97.9148 15.656 97.9148 14.984C97.9148 14.344 97.8108 13.784 97.6028 13.304C97.4108 12.824 97.1468 12.584 96.8108 12.584C96.4108 12.584 96.1068 12.864 95.8988 13.424C95.7068 13.968 95.6108 14.56 95.6108 15.2C95.6108 15.856 95.6748 16.392 95.8028 16.808C95.9308 17.224 96.2108 17.432 96.6428 17.432ZM105.065 23.264C104.953 23.264 104.881 23.216 104.849 23.12C104.817 23.024 104.793 22.92 104.777 22.808C104.777 22.696 104.777 22.624 104.777 22.592C104.745 22.336 104.729 21.96 104.729 21.464C104.729 21.144 104.737 20.904 104.753 20.744C104.769 19.88 104.793 18.376 104.825 16.232C104.857 14.072 104.873 12.136 104.873 10.424C104.873 8.584 104.849 7.512 104.801 7.208C104.785 7.08 104.777 6.912 104.777 6.704C104.777 6.464 104.809 6.312 104.873 6.248C104.953 6.184 105.065 6.152 105.209 6.152C105.529 6.152 105.841 6.16 106.145 6.176L108.761 6.224C109.721 6.224 110.721 6.392 111.761 6.728C112.801 7.064 113.321 7.688 113.321 8.6C113.321 9.464 113.001 10.136 112.361 10.616C111.721 11.096 111.001 11.424 110.201 11.6C109.417 11.776 108.729 11.864 108.137 11.864C107.929 11.864 107.817 11.856 107.801 11.84C107.897 11.936 108.529 12.784 109.697 14.384C113.217 19.104 115.161 21.648 115.529 22.016C115.961 22.448 116.177 22.744 116.177 22.904C116.177 22.936 116.137 22.992 116.057 23.072C115.913 23.168 115.553 23.216 114.977 23.216C114.561 23.216 114.297 23.184 114.185 23.12C114.073 23.072 113.985 22.984 113.921 22.856C113.873 22.728 113.833 22.632 113.801 22.568C113.753 22.472 113.553 22.2 113.201 21.752C112.865 21.288 112.609 20.936 112.433 20.696C111.585 19.608 110.849 18.624 110.225 17.744C109.841 17.2 109.129 16.264 108.089 14.936L107.705 14.456L106.049 12.392L105.953 13.352C105.889 13.832 105.873 14.408 105.905 15.08C105.953 15.528 105.985 16.688 106.001 18.56C106.017 20.432 106.025 21.8 106.025 22.664C106.025 22.92 105.929 23.08 105.737 23.144C105.545 23.224 105.321 23.264 105.065 23.264ZM105.977 10.88C106.505 10.88 106.905 10.872 107.177 10.856C108.105 10.824 108.825 10.76 109.337 10.664C110.073 10.536 110.625 10.36 110.993 10.136C111.377 9.912 111.569 9.56 111.569 9.08C111.569 8.76 111.401 8.488 111.065 8.264C110.729 8.024 110.321 7.848 109.841 7.736C109.377 7.608 108.969 7.544 108.617 7.544C108.217 7.528 107.657 7.52 106.937 7.52H106.121L105.977 10.88ZM128.263 23.024C128.199 23.024 128.135 22.968 128.071 22.856C128.007 22.744 127.951 22.632 127.903 22.52C127.855 22.408 127.815 22.312 127.783 22.232C127.703 22.072 127.551 21.704 127.327 21.128C127.119 20.552 126.959 20.096 126.847 19.76C126.799 19.6 126.703 19.368 126.559 19.064C126.415 18.744 126.311 18.52 126.247 18.392C126.183 18.2 126.119 18.072 126.055 18.008C126.007 17.944 125.927 17.912 125.815 17.912C125.703 17.912 125.559 17.92 125.383 17.936C125.223 17.952 125.047 17.968 124.855 17.984C124.727 18.016 124.327 18.032 123.655 18.032C123.191 18.032 122.735 18.048 122.287 18.08C122.143 18.096 121.887 18.104 121.519 18.104L120.247 18.08C120.167 18.08 120.103 18.112 120.055 18.176C120.023 18.24 119.999 18.32 119.983 18.416C119.967 18.496 119.951 18.56 119.935 18.608L119.791 19.208C119.743 19.432 119.679 19.696 119.599 20C119.535 20.288 119.479 20.56 119.431 20.816L119.167 21.848L118.975 22.544C118.927 22.736 118.879 22.864 118.831 22.928C118.799 22.976 118.743 23 118.663 23H117.247C117.167 23 117.127 22.968 117.127 22.904C117.127 22.872 117.159 22.76 117.223 22.568C117.351 22.264 117.463 21.96 117.559 21.656C118.151 19.672 118.503 18.376 118.615 17.768C118.759 16.968 119.055 15.936 119.503 14.672C119.647 14.128 119.783 13.632 119.911 13.184C119.959 12.96 120.031 12.688 120.127 12.368C120.431 11.248 120.735 10.2 121.039 9.224L121.639 7.304C121.767 6.808 121.927 6.296 122.119 5.768C122.215 5.528 122.327 5.472 122.455 5.6C122.551 5.664 122.623 5.776 122.671 5.936C122.719 6.096 122.751 6.208 122.767 6.272C122.815 6.464 123.239 7.424 124.039 9.152C124.359 9.808 124.703 10.664 125.071 11.72C125.231 12.184 125.671 13.184 126.391 14.72C126.759 15.472 126.999 15.992 127.111 16.28C127.367 16.84 128.055 18.2 129.175 20.36L129.463 20.96C129.831 21.776 130.111 22.296 130.303 22.52C130.383 22.68 130.423 22.784 130.423 22.832C130.423 22.96 130.279 23.024 129.991 23.024H128.263ZM121.159 14.72C121.495 14.72 122.007 14.712 122.695 14.696C123.399 14.664 123.839 14.632 124.015 14.6C124.127 14.584 124.223 14.576 124.303 14.576C124.383 14.576 124.447 14.568 124.495 14.552C124.543 14.536 124.567 14.512 124.567 14.48C124.567 14.448 124.543 14.384 124.495 14.288C124.415 14.144 124.231 13.744 123.943 13.088C123.655 12.416 123.455 11.912 123.343 11.576C123.183 11.192 123.055 10.872 122.959 10.616C122.879 10.36 122.815 10.184 122.767 10.088C122.735 10.008 122.695 9.928 122.647 9.848C122.615 9.768 122.583 9.704 122.551 9.656C122.519 9.608 122.487 9.584 122.455 9.584C122.407 9.584 122.351 9.704 122.287 9.944C122.239 10.184 122.199 10.368 122.167 10.496C121.879 11.424 121.671 12.128 121.543 12.608C121.479 12.848 121.383 13.144 121.255 13.496C121.143 13.832 121.063 14.064 121.015 14.192C120.967 14.352 120.943 14.48 120.943 14.576C120.943 14.672 121.015 14.72 121.159 14.72ZM145 6.032C145.16 6.08 145.24 6.16 145.24 6.272L145.192 6.464C145.176 6.576 145.152 6.792 145.12 7.112C145.088 7.416 145.04 7.888 144.976 8.528C144.928 9.008 144.888 10.104 144.856 11.816C144.824 13.512 144.808 14.84 144.808 15.8C144.808 16.472 144.776 17.64 144.712 19.304L144.664 20.888L144.64 21.848C144.64 22.088 144.656 22.32 144.688 22.544L144.712 22.688C144.712 22.784 144.672 22.84 144.592 22.856C144.528 22.856 144.488 22.856 144.472 22.856C144.312 22.888 144.024 22.904 143.608 22.904C143.48 22.904 143.416 22.84 143.416 22.712L143.44 19.16C143.424 18.904 143.416 18.64 143.416 18.368C143.432 18.08 143.44 17.824 143.44 17.6V16.592V14.816L141.496 14.864C140.808 14.88 139.88 14.888 138.712 14.888H136.456C135.848 14.888 135.376 14.88 135.04 14.864C135.04 15.136 135.032 15.344 135.016 15.488C134.984 16 134.968 16.488 134.968 16.952L134.944 19.544C134.944 20.808 134.984 21.64 135.064 22.04C135.096 22.232 135.112 22.352 135.112 22.4C135.112 22.624 135.048 22.768 134.92 22.832C134.808 22.88 134.68 22.904 134.536 22.904C134.408 22.888 134.32 22.88 134.272 22.88C133.712 22.848 133.072 22.872 132.352 22.952C132.08 22.984 131.912 22.92 131.848 22.76C131.8 22.6 131.776 22.376 131.776 22.088C131.792 21.8 131.8 21.584 131.8 21.44L131.752 13.136L131.8 6.92C131.8 6.6 131.832 6.4 131.896 6.32C131.976 6.224 132.096 6.176 132.256 6.176L132.784 6.2C132.864 6.2 133.048 6.184 133.336 6.152C133.416 6.136 133.552 6.128 133.744 6.128L134.368 6.152C134.496 6.168 134.672 6.176 134.896 6.176C135.072 6.176 135.176 6.232 135.208 6.344C135.256 6.44 135.272 6.544 135.256 6.656C135.256 6.768 135.256 6.848 135.256 6.896C135.256 7.632 135.224 8.584 135.16 9.752L135.064 12.128L134.992 13.544L136.432 13.592L137.32 13.616C138.088 13.648 138.624 13.664 138.928 13.664C140.176 13.664 141.128 13.656 141.784 13.64C142.568 13.64 143.168 13.632 143.584 13.616V12.896L143.56 11.576C143.56 10.968 143.592 9.72 143.656 7.832L143.704 6.152C143.72 6.008 143.808 5.936 143.968 5.936L144.232 5.96C144.296 5.976 144.416 5.984 144.592 5.984C144.784 5.984 144.92 6 145 6.032ZM143.416 22.664V22.712V22.664Z" fill="#EBEBE3"/>
</svg>
