<svg width="15" height="15" viewBox="0 0 15 15" fill="none" xmlns="http://www.w3.org/2000/svg">
<path d="M7.19999 0.959999V9.12M7.19999 9.12V11.04C7.19999 12.1004 6.34037 12.96 5.27999 12.96C4.2196 12.96 3.35999 12.1004 3.35999 11.04C3.35999 9.97961 4.2196 9.12 5.27999 9.12M7.19999 9.12H5.27999M5.27999 9.12C4.2196 9.12 3.35999 8.26039 3.35999 7.2C3.35999 6.13961 4.2196 5.28 5.27999 5.28M5.27999 5.28H7.19999M5.27999 5.28H9.11998M5.27999 5.28C4.2196 5.28 3.35999 4.42039 3.35999 3.36C3.35999 2.29961 4.2196 1.44 5.27999 1.44H9.11998C10.1804 1.44 11.04 2.29961 11.04 3.36C11.04 4.42039 10.1804 5.28 9.11998 5.28M9.11998 5.28C10.1804 5.28 11.04 6.13961 11.04 7.2C11.04 8.26039 10.1804 9.12 9.11998 9.12C8.0596 9.12 7.19999 8.26039 7.19999 7.2C7.19999 6.13961 8.0596 5.28 9.11998 5.28Z" stroke="#150B0A"/>
</svg>
