<svg width="15" height="16" viewBox="0 0 15 16" fill="none" xmlns="http://www.w3.org/2000/svg">
<path d="M0.880005 1.48V0.98C0.740179 0.98 0.606741 1.03855 0.512064 1.14144C0.417386 1.24434 0.37012 1.38218 0.381732 1.52152L0.880005 1.48ZM14.32 1.48L14.8183 1.52152C14.8299 1.38218 14.7826 1.24434 14.6879 1.14144C14.5933 1.03855 14.4598 0.98 14.32 0.98V1.48ZM13.36 13L13.5181 13.4743C13.7079 13.4111 13.8417 13.2408 13.8583 13.0415L13.36 13ZM7.6 14.92L7.44189 15.3943C7.54452 15.4286 7.65549 15.4286 7.75812 15.3943L7.6 14.92ZM1.84 13L1.34173 13.0415C1.35834 13.2408 1.49214 13.4111 1.68189 13.4743L1.84 13ZM4.72 4.36V3.86H4.22V4.36H4.72ZM4.72 7.24H4.22V7.74H4.72V7.24ZM10.48 7.24H10.98V6.74H10.48V7.24ZM10.48 10.12L10.6381 10.5943L10.98 10.4804V10.12H10.48ZM7.6 11.08L7.44189 11.5543L7.6 11.607L7.75812 11.5543L7.6 11.08ZM4.72 10.12H4.22V10.4804L4.56189 10.5943L4.72 10.12ZM0.880005 1.48V1.98H14.32V1.48V0.98H0.880005V1.48ZM14.32 1.48L13.8217 1.43848L12.8617 12.9585L13.36 13L13.8583 13.0415L14.8183 1.52152L14.32 1.48ZM13.36 13L13.2019 12.5257L7.44189 14.4457L7.6 14.92L7.75812 15.3943L13.5181 13.4743L13.36 13ZM7.6 14.92L7.75812 14.4457L1.99812 12.5257L1.84 13L1.68189 13.4743L7.44189 15.3943L7.6 14.92ZM1.84 13L2.33828 12.9585L1.37828 1.43848L0.880005 1.48L0.381732 1.52152L1.34173 13.0415L1.84 13ZM10.96 4.36V3.86H4.72V4.36V4.86H10.96V4.36ZM4.72 4.36H4.22V7.24H4.72H5.22001V4.36H4.72ZM4.72 7.24V7.74H10.48V7.24V6.74H4.72V7.24ZM10.48 7.24H9.98V10.12H10.48H10.98V7.24H10.48ZM10.48 10.12L10.3219 9.64566L7.44189 10.6057L7.6 11.08L7.75812 11.5543L10.6381 10.5943L10.48 10.12ZM7.6 11.08L7.75812 10.6057L4.87812 9.64566L4.72 10.12L4.56189 10.5943L7.44189 11.5543L7.6 11.08ZM4.72 10.12H5.22001V8.68H4.72H4.22V10.12H4.72Z" fill="#150B0A"/>
</svg>
