<svg width="16" height="15" viewBox="0 0 16 15" fill="none" xmlns="http://www.w3.org/2000/svg">
<path d="M11.84 5.76V5.6C11.84 4.89307 11.2669 4.32 10.56 4.32H9.43999C8.6447 4.32 7.99999 4.96471 7.99999 5.76C7.99999 6.55529 8.6447 7.2 9.43999 7.2H10.4C11.1953 7.2 11.84 7.84471 11.84 8.64C11.84 9.43529 11.1953 10.08 10.4 10.08H9.43999C8.6447 10.08 7.99999 9.43529 7.99999 8.64M6.07999 3.84V8.89337C6.07999 9.62062 5.66911 10.2854 5.01864 10.6107L4.15999 11.04M2.23999 10.08V4.32L7.99999 0.959999L13.76 4.32V10.08L7.99999 13.44L2.23999 10.08Z" stroke="#150B0A"/>
</svg>
