<svg width="16" height="15" viewBox="0 0 16 15" fill="none" xmlns="http://www.w3.org/2000/svg">
<path d="M14.92 7.28051C14.92 8.87108 11.9113 10.1605 8.19998 10.1605C4.48863 10.1605 1.47998 8.87108 1.47998 7.28051C1.47998 5.68993 4.48863 4.40051 8.19998 4.40051C11.9113 4.40051 14.92 5.68993 14.92 7.28051Z" stroke="#150B0A"/>
<path d="M4.99923 13.1893C6.39781 13.9469 8.96457 11.9156 10.7323 8.65225C12.4999 5.3889 12.7992 2.1293 11.4006 1.37172C10.002 0.614138 7.43525 2.64546 5.66756 5.90881C3.89988 9.17216 3.60066 12.4318 4.99923 13.1893Z" stroke="#150B0A"/>
<path d="M11.4006 13.1893C10.002 13.9469 7.43527 11.9156 5.66758 8.65225C3.8999 5.3889 3.60068 2.1293 4.99925 1.37172C6.39783 0.614138 8.96459 2.64546 10.7323 5.90881C12.5 9.17216 12.7992 12.4318 11.4006 13.1893Z" stroke="#150B0A"/>
<path d="M7.23998 7.28051C7.23998 7.8107 7.66979 8.2405 8.19998 8.2405C8.73017 8.2405 9.15998 7.8107 9.15998 7.28051C9.15998 6.75031 8.73017 6.32051 8.19998 6.32051C7.66979 6.32051 7.23998 6.75031 7.23998 7.28051Z" stroke="#150B0A"/>
</svg>
