<svg width="37" height="37" viewBox="0 0 37 37" fill="none" xmlns="http://www.w3.org/2000/svg">
<path fill-rule="evenodd" clip-rule="evenodd" d="M13.1985 6.55259C12.3412 7.39376 10.457 6.85318 9.22978 6.85318C6.73279 6.85318 4.15011 7.01983 2.26128 8.93664C1.78761 9.41727 1.46959 10.2476 1.32797 10.8938C1.14068 11.7486 0.862049 12.6646 1.07909 13.5453C1.80479 16.491 5.73705 17.3791 6.98984 19.9217C7.50206 20.961 5.0587 21.7971 4.56345 22.1315C1.48174 24.2111 1.16331 26.8962 1.39019 28.5079C1.78928 31.3422 3.93118 33.7194 6.74096 34.1267C8.51414 34.3837 10.3374 33.5417 11.9673 32.9903C13.3294 32.5297 15.3385 30.8811 16.8827 31.6645C18.269 32.3679 19.6535 34.0974 20.7402 35.2C21.7286 36.2028 24.0557 36.0327 25.2821 35.8945C25.9079 35.824 26.7278 35.5704 27.2731 35.2C31.9841 32.0003 27.2692 28.0337 27.3354 27.3715C27.4439 26.2854 29.7077 26.7795 31.3173 26.2351C34.4044 25.1909 36.7133 21.6604 35.7972 18.4065C35.1865 16.238 32.9692 15.1352 31.0684 14.4923C30.2878 14.2283 27.8717 14.5467 27.522 13.4822C27.318 12.861 27.8099 8.47216 27.6748 7.07213C27.1642 1.78429 21.7194 0.282642 18.2528 1.29706C15.5964 2.07424 14.3342 5.43805 13.1985 6.55259Z" fill="#B91C4F" stroke="#150B0A" stroke-miterlimit="1.5" stroke-linecap="round" stroke-linejoin="round"/>
<path d="M12.7492 24.6745C12.7038 24.6745 12.6302 24.6745 12.5282 24.6745C12.4375 24.6745 12.3808 24.6632 12.3582 24.6405C12.3355 24.6179 12.3242 24.5725 12.3242 24.5045L12.3412 23.9605L12.3752 21.7335L12.4092 18.1635C12.4092 17.8235 12.4318 17.0529 12.4772 15.8515C12.4885 15.5682 12.5055 15.1092 12.5282 14.4745C12.5508 13.8285 12.5508 13.4489 12.5282 13.3355L12.5112 12.9785C12.5112 12.6839 12.6018 12.5365 12.7832 12.5365L13.4122 12.5535C13.5255 12.5535 13.5822 12.6329 13.5822 12.7915C13.5822 12.8482 13.5765 12.9162 13.5652 12.9955C13.5538 13.0635 13.5482 13.1315 13.5482 13.1995C13.5142 13.4489 13.4858 14.0892 13.4632 15.1205C13.4632 15.4379 13.4405 16.2425 13.3952 17.5345C13.3498 18.7812 13.3272 19.5405 13.3272 19.8125C13.3272 20.4699 13.3385 21.3029 13.3612 22.3115C13.3838 23.3089 13.4065 23.9039 13.4292 24.0965C13.4405 24.1645 13.4462 24.2439 13.4462 24.3345C13.4462 24.4139 13.4292 24.4705 13.3952 24.5045C13.3725 24.5385 13.3328 24.5725 13.2762 24.6065C13.2082 24.6519 13.0325 24.6745 12.7492 24.6745Z" fill="white"/>
<path d="M19.9103 24.9295C18.2896 24.9295 17.2129 24.2495 16.6803 22.8895C16.1476 21.5182 15.8813 20.0505 15.8813 18.4865C15.8813 16.9792 16.0853 15.7722 16.4933 14.8655C16.9126 13.9589 17.4169 13.3242 18.0063 12.9615C18.6069 12.5989 19.2019 12.4175 19.7913 12.4175C20.9246 12.4175 21.7746 12.7462 22.3413 13.4035C22.9079 14.0495 23.2706 14.8202 23.4293 15.7155C23.5879 16.5995 23.6673 17.6025 23.6673 18.7245C23.6673 19.6312 23.5313 20.5662 23.2593 21.5295C22.9873 22.4815 22.5679 23.2862 22.0013 23.9435C21.4346 24.6009 20.7376 24.9295 19.9103 24.9295ZM19.7743 20.6115C20.0803 20.6115 20.3069 20.4415 20.4543 20.1015C20.6016 19.7615 20.6753 19.3535 20.6753 18.8775C20.6753 18.4242 20.6016 18.0275 20.4543 17.6875C20.3183 17.3475 20.1313 17.1775 19.8933 17.1775C19.6099 17.1775 19.3946 17.3759 19.2473 17.7725C19.1113 18.1579 19.0433 18.5772 19.0433 19.0305C19.0433 19.4952 19.0886 19.8749 19.1793 20.1695C19.2699 20.4642 19.4683 20.6115 19.7743 20.6115Z" fill="white"/>
</svg>
