<svg width="345" height="69" viewBox="0 0 345 69" fill="none" xmlns="http://www.w3.org/2000/svg">
<path d="M3.9744 55.4032C3.8208 55.4032 3.5712 55.4032 3.2256 55.4032C2.9184 55.4032 2.7264 55.3648 2.6496 55.288C2.5728 55.2112 2.5344 55.0576 2.5344 54.8272L2.592 52.984L2.7072 45.4384L2.8224 33.3424C2.8224 32.1904 2.8992 29.5792 3.0528 25.5088C3.0912 24.5488 3.1488 22.9936 3.2256 20.8432C3.3024 18.6544 3.3024 17.368 3.2256 16.984L3.168 15.7744C3.168 14.776 3.4752 14.2768 4.0896 14.2768L6.2208 14.3344C6.6048 14.3344 6.7968 14.6032 6.7968 15.1408C6.7968 15.3328 6.7776 15.5632 6.7392 15.832C6.7008 16.0624 6.6816 16.2928 6.6816 16.5232C6.5664 17.368 6.4704 19.5376 6.3936 23.032C6.3936 24.1072 6.3168 26.8336 6.1632 31.2112C6.0096 35.4352 5.9328 38.008 5.9328 38.9296C5.9328 41.1568 5.9712 43.9792 6.048 47.3968C6.1248 50.776 6.2016 52.792 6.2784 53.4448C6.3168 53.6752 6.336 53.944 6.336 54.2512C6.336 54.52 6.2784 54.712 6.1632 54.8272C6.0864 54.9424 5.952 55.0576 5.76 55.1728C5.5296 55.3264 4.9344 55.4032 3.9744 55.4032ZM21.1577 54.8848C20.9657 54.8848 20.5241 54.8464 19.8329 54.7696C19.4873 54.7312 18.7769 54.712 17.7017 54.712L13.4969 54.7696C13.0745 54.7312 12.8057 54.6544 12.6905 54.5392C12.6137 54.424 12.5753 54.2704 12.5753 54.0784C12.5753 53.848 12.5753 53.6944 12.5753 53.6176L12.5177 50.5648C12.5177 50.0272 12.4985 49.5664 12.4601 49.1824L12.4025 45.2656C12.4025 44.6896 12.4217 44.1136 12.4601 43.5376C12.5369 42.9232 12.5753 42.4816 12.5753 42.2128C12.6905 41.3296 12.7481 40.3312 12.7481 39.2176L12.6905 32.6512L12.7481 28.8496C12.8249 27.0832 12.8633 25.7392 12.8633 24.8176C12.8633 22.6672 12.8249 20.0176 12.7481 16.8688C12.7481 16.1776 12.8249 15.7168 12.9785 15.4864C13.1705 15.256 13.4393 15.1408 13.7849 15.1408C14.0153 15.1408 14.2457 15.16 14.4761 15.1984C14.7449 15.2368 15.0521 15.256 15.3977 15.256L19.7753 15.1408L23.4617 15.0256C23.9225 15.0256 24.4409 15.0064 25.0169 14.968C25.5929 14.9296 26.1689 14.8912 26.7449 14.8528C28.0505 14.7376 29.1257 14.68 29.9705 14.68L34.8089 14.7376C35.6921 14.7376 36.1337 15.0256 36.1337 15.6016V18.4816C36.1337 18.8272 36.0569 19.0384 35.9033 19.1152C35.7881 19.1536 35.5193 19.1728 35.0969 19.1728C34.5977 19.1728 34.1561 19.1536 33.7721 19.1152L30.0857 19.0576C28.6265 19.0576 27.2057 19.1344 25.8233 19.288L23.0009 19.4608L22.8281 20.4976C22.7513 21.3424 22.7129 22.0144 22.7129 22.5136L22.6553 27.64L22.5977 30.5776V31.96C23.4041 31.96 23.9993 31.9408 24.3833 31.9024L27.1481 31.8448L29.4521 31.7872C29.9897 31.7488 30.7385 31.7296 31.6985 31.7296C32.3129 31.7296 32.7161 31.8064 32.9081 31.96C33.1385 32.1136 33.2537 32.3632 33.2537 32.7088L33.196 34.6096C33.196 34.9168 33.1001 35.128 32.9081 35.2432C32.7545 35.3584 32.4089 35.416 31.8712 35.416C31.1801 35.416 30.6041 35.3968 30.1432 35.3584L27.8393 35.3008H22.4825C22.4825 36.2992 22.5017 37.0288 22.5401 37.4896L22.5977 41.1184L22.5401 43.9408C22.4633 45.1696 22.4249 46.1104 22.4249 46.7632L22.4825 53.56C22.4825 54.0592 22.3673 54.4048 22.1369 54.5968C21.9449 54.7888 21.6185 54.8848 21.1577 54.8848ZM62.3178 54.8848C61.8954 54.8848 61.5498 54.8656 61.281 54.8272C60.2442 54.712 58.1514 54.6544 55.0026 54.6544C53.0826 54.6544 51.7002 54.6736 50.8554 54.712C50.2026 54.7504 49.1274 54.7696 47.6298 54.7696L42.273 54.712C41.6586 54.6736 40.929 54.6544 40.0842 54.6544C39.5466 54.6544 39.1818 54.5968 38.9898 54.4816C38.8362 54.328 38.7594 54.0976 38.7594 53.7904L38.817 52.8688C38.8554 52.7152 38.8746 52.5424 38.8746 52.3504C38.8746 52.2352 38.8554 51.9664 38.817 51.544C38.7786 51.0832 38.7594 50.2576 38.7594 49.0672C38.7594 47.9152 38.721 46.0336 38.6442 43.4224C38.529 41.272 38.4714 39.1984 38.4714 37.2016C38.4714 36.3568 38.5674 33.9184 38.7594 29.8864C38.7978 29.08 38.8362 28.2736 38.8746 27.4672C38.913 26.6608 38.9322 25.9312 38.9322 25.2784C38.9322 20.824 38.8746 17.8864 38.7594 16.4656C38.6442 15.544 39.201 15.0832 40.4298 15.0832C40.737 15.0832 41.2362 15.1216 41.9274 15.1984C42.5418 15.2752 43.0026 15.3136 43.3098 15.3136L46.9386 15.1984C49.5498 15.0448 51.5658 14.968 52.9866 14.968C54.6378 14.968 56.961 15.0064 59.9562 15.0832C60.9162 15.1216 61.9338 15.1408 63.009 15.1408C63.4698 15.1408 63.7578 15.256 63.873 15.4864C63.9882 15.7168 64.0266 15.9664 63.9882 16.2352C63.9882 16.4656 63.9882 16.6192 63.9882 16.696V17.3296C63.9882 18.2128 63.9114 18.6544 63.7578 18.6544C63.5274 18.6544 63.2586 18.6352 62.9514 18.5968C62.6826 18.52 62.337 18.4816 61.9146 18.4816L45.5562 18.424C45.3258 18.424 44.4618 18.4816 42.9642 18.5968L41.6394 18.712L41.5242 20.2672C41.4858 20.8432 41.4666 21.7456 41.4666 22.9744C41.4666 23.5888 41.505 24.3952 41.5818 25.3936C41.6586 26.3152 41.697 26.9872 41.697 27.4096V29.7136C41.697 30.328 41.7162 30.808 41.7546 31.1536C42.1002 31.192 42.6186 31.2112 43.3098 31.2112H45.6138C45.8442 31.2112 46.305 31.1728 46.9962 31.096C47.9946 31.0192 48.8586 30.9808 49.5882 30.9808C49.8954 30.9808 50.9706 31.0384 52.8138 31.1536L54.081 31.2112C54.3882 31.2112 54.8298 31.192 55.4058 31.1536C55.9818 31.0768 56.5386 31.0384 57.0762 31.0384L58.977 31.096C59.9754 31.1728 60.6666 31.2112 61.0506 31.2112C61.473 31.2112 61.761 31.192 61.9146 31.1536L62.2602 31.096C62.529 31.096 62.721 31.192 62.8362 31.384C62.9514 31.5376 62.9898 31.6912 62.9514 31.8448C62.913 32.1136 62.8938 32.4592 62.8938 32.8816C62.8938 33.2656 62.8746 33.6112 62.8362 33.9184C62.7978 34.2256 62.7402 34.4176 62.6634 34.4944C62.5866 34.5328 62.3562 34.552 61.9722 34.552L59.6682 34.3216C56.7882 34.0528 54.9066 33.9184 54.0234 33.9184C50.7594 33.9184 48.3594 33.976 46.8234 34.0912C46.209 34.168 45.537 34.2064 44.8074 34.2064C44.0778 34.2064 43.617 34.2064 43.425 34.2064C42.6954 34.2064 42.1578 34.1872 41.8122 34.1488L41.6394 35.0704C41.5626 35.7616 41.5242 36.376 41.5242 36.9136C41.5242 37.3744 41.5626 37.912 41.6394 38.5264C41.7162 39.1408 41.7546 39.6784 41.7546 40.1392L41.8122 46.9936L41.7546 49.8736C41.7162 50.2192 41.697 50.6992 41.697 51.3136C42.1962 51.352 42.9258 51.3712 43.8858 51.3712C44.6922 51.4096 45.9402 51.4288 47.6298 51.4288L50.7402 51.4864C51.393 51.5248 52.3914 51.544 53.7354 51.544C54.5418 51.544 55.5978 51.5056 56.9034 51.4288L59.3226 51.3712C60.2442 51.3712 61.0122 51.3904 61.6266 51.4288C62.241 51.4672 62.7018 51.4864 63.009 51.4864C63.3162 51.4864 63.489 51.544 63.5274 51.6592C63.6042 51.7744 63.6426 52.024 63.6426 52.408C63.6426 52.6768 63.6234 52.9648 63.585 53.272C63.5466 53.5408 63.5274 53.848 63.5274 54.1936C63.5274 54.4624 63.4314 54.6544 63.2394 54.7696C63.0474 54.8464 62.7402 54.8848 62.3178 54.8848Z" fill="#EBEBE3"/>
<path fill-rule="evenodd" clip-rule="evenodd" d="M80.924 27.0446C80.3811 27.5695 79.1881 27.2322 78.411 27.2322C76.8299 27.2322 75.1946 27.3362 73.9986 28.5323C73.6987 28.8322 73.4973 29.3504 73.4077 29.7536C73.2891 30.287 73.1126 30.8586 73.2501 31.4082C73.7096 33.2463 76.1994 33.8006 76.9927 35.3872C77.317 36.0357 75.7699 36.5574 75.4563 36.7661C73.505 38.0638 73.3034 39.7394 73.4471 40.7451C73.6998 42.5138 75.056 43.9972 76.8351 44.2514C77.9579 44.4117 79.1123 43.8863 80.1444 43.5422C81.0069 43.2547 82.279 42.226 83.2568 42.7149C84.1345 43.1538 85.0112 44.2331 85.6993 44.9211C86.3251 45.5468 87.7986 45.4407 88.5752 45.3545C88.9714 45.3104 89.4906 45.1522 89.8359 44.9211C92.8188 42.9244 89.8334 40.4492 89.8753 40.036C89.944 39.3582 91.3774 39.6665 92.3966 39.3268C94.3513 38.6752 95.8133 36.4722 95.2332 34.4417C94.8465 33.0885 93.4425 32.4003 92.239 31.9991C91.7447 31.8344 90.2149 32.0331 89.9935 31.3688C89.8643 30.9812 90.1757 28.2425 90.0902 27.3688C89.7669 24.0691 86.3193 23.1321 84.1243 23.7651C82.4423 24.2501 81.6431 26.3491 80.924 27.0446Z" fill="#B91C4F" stroke="#EBEBE3" stroke-width="1.8" stroke-miterlimit="1.5" stroke-linecap="round" stroke-linejoin="round"/>
<path d="M118.69 56.2672C113.198 56.2672 109.55 53.9632 107.746 49.3552C105.941 44.7088 105.038 39.736 105.038 34.4368C105.038 29.3296 105.73 25.24 107.112 22.168C108.533 19.096 110.242 16.9456 112.238 15.7168C114.274 14.488 116.29 13.8736 118.286 13.8736C122.126 13.8736 125.006 14.9872 126.926 17.2144C128.846 19.4032 130.075 22.0144 130.613 25.048C131.15 28.0432 131.419 31.4416 131.419 35.2432C131.419 38.3152 130.958 41.4832 130.037 44.7472C129.115 47.9728 127.694 50.6992 125.774 52.9264C123.854 55.1536 121.493 56.2672 118.69 56.2672ZM118.229 41.6368C119.266 41.6368 120.034 41.0608 120.533 39.9088C121.032 38.7568 121.282 37.3744 121.282 35.7616C121.282 34.2256 121.032 32.8816 120.533 31.7296C120.072 30.5776 119.438 30.0016 118.632 30.0016C117.672 30.0016 116.942 30.6736 116.443 32.0176C115.982 33.3232 115.752 34.744 115.752 36.28C115.752 37.8544 115.906 39.1408 116.213 40.1392C116.52 41.1376 117.192 41.6368 118.229 41.6368ZM139.134 55.6912C138.558 55.6912 138.174 55.576 137.982 55.3456C137.79 55.1536 137.675 54.9232 137.637 54.6544C137.598 54.3856 137.56 54.1936 137.522 54.0784C137.368 53.3872 137.291 52.5424 137.291 51.544C137.291 50.6224 137.31 49.8352 137.349 49.1824C137.349 47.1856 137.387 44.8624 137.464 42.2128C137.541 39.5248 137.637 37.6048 137.752 36.4528L138.04 32.3632C138.501 25.9888 138.731 22.3984 138.731 21.592C138.731 18.5584 138.789 16.2928 138.904 14.7952C138.981 13.7584 139.518 13.24 140.517 13.24C140.824 13.24 141.112 13.2592 141.381 13.2976C141.65 13.336 141.861 13.3552 142.014 13.3552L146.91 13.2976C147.755 13.2976 148.37 13.3936 148.754 13.5856C149.176 13.7392 149.502 14.0272 149.733 14.4496C150.117 15.256 150.597 16.2928 151.173 17.56L153.304 22.168L156.011 28.1008C156.51 29.176 157.163 30.5968 157.97 32.3632C158.776 34.1296 159.352 35.3584 159.698 36.0496C160.35 37.3936 160.773 38.2192 160.965 38.5264L162.578 41.6944L164.363 45.208L164.248 41.8672L164.018 36.2224V34.4944C164.018 32.3824 164.056 30.2512 164.133 28.1008C164.133 26.488 164.114 25.1824 164.075 24.184L164.018 19.8064L164.248 14.2768C164.248 13.7008 164.536 13.4128 165.112 13.4128C165.304 13.4128 165.688 13.4704 166.264 13.5856C166.61 13.6624 166.974 13.7008 167.358 13.7008C167.742 13.7008 168.05 13.7008 168.28 13.7008C168.587 13.7008 168.779 13.7392 168.856 13.816C168.971 13.8928 169.029 14.0272 169.029 14.2192C169.029 14.3728 169.01 14.5456 168.971 14.7376C168.933 14.9296 168.914 15.1408 168.914 15.3712L168.856 20.3248L168.741 31.96L168.683 33.6304C168.683 34.936 168.702 36.1264 168.741 37.2016C168.779 38.2768 168.818 39.16 168.856 39.8512C168.971 41.5024 169.029 42.8848 169.029 43.9984C169.029 43.8448 169.086 46.1296 169.202 50.8528L169.317 54.0784V54.1936C169.317 54.9616 168.952 55.3072 168.222 55.2304C168.107 55.192 167.877 55.1728 167.531 55.1728L165.861 55.2304H165.515C165.246 55.2304 165.035 55.1728 164.882 55.0576C164.766 54.9424 164.555 54.616 164.248 54.0784C164.133 53.8096 163.979 53.4256 163.787 52.9264C163.595 52.4272 163.365 51.8704 163.096 51.256C161.445 47.1088 160.254 44.2864 159.525 42.7888C158.68 41.176 156.549 36.5488 153.131 28.9072C152.363 27.3328 151.499 25.6624 150.539 23.896L148.869 20.9008L149.042 26.3728L149.099 29.7712C149.176 32.3056 149.214 33.976 149.214 34.7824C149.214 37.9312 149.272 41.0992 149.387 44.2864L149.445 48.7792C149.445 49.5856 149.483 50.7568 149.56 52.2928L149.675 54.3088V54.424C149.675 54.808 149.579 55.0576 149.387 55.1728C149.195 55.288 148.926 55.3456 148.581 55.3456L147.314 55.4032C146.507 55.5184 145.643 55.576 144.722 55.576C143.646 55.576 142.763 55.5952 142.072 55.6336L139.134 55.6912ZM190.962 54.6544C181.823 54.6544 176.907 50.2768 176.216 41.5216C176.178 41.1376 176.159 40.3696 176.159 39.2176C176.159 38.0272 176.197 35.9344 176.274 32.9392C176.389 29.4832 176.427 26.9104 176.389 25.2208C176.389 22.9168 176.351 20.4976 176.274 17.9632C176.235 17.2336 176.216 16.4848 176.216 15.7168C176.216 15.5632 176.197 15.2752 176.159 14.8528C176.159 14.4304 176.235 14.1232 176.389 13.9312C176.581 13.7392 176.907 13.6432 177.368 13.6432C178.021 13.6432 178.52 13.6624 178.866 13.7008L180.479 13.7584C180.901 13.7584 181.535 13.72 182.379 13.6432C183.224 13.5664 183.915 13.528 184.453 13.528L186.757 13.5856C187.103 13.5856 187.314 13.6816 187.391 13.8736C187.506 14.0272 187.583 14.3344 187.621 14.7952V37.8352C187.621 38.68 187.659 39.4096 187.736 40.024C187.851 40.6384 188.139 41.2336 188.6 41.8096C189.099 42.3472 189.887 42.616 190.962 42.616C192.459 42.616 193.477 42.0592 194.015 40.9456C194.552 39.7936 194.821 38.5456 194.821 37.2016L194.879 34.3216C194.994 30.0592 195.051 27.6784 195.051 27.1792C195.051 26.104 195.032 25.3744 194.994 24.9904C194.994 23.6464 194.917 21.592 194.763 18.8272L194.648 15.6592C194.648 14.968 194.744 14.488 194.936 14.2192C195.128 13.9504 195.493 13.816 196.031 13.816H203.346L204.21 13.7584C204.594 13.7584 204.901 13.8736 205.131 14.104C205.4 14.3344 205.573 14.7952 205.65 15.4864C205.727 16.1392 205.765 18.4048 205.765 22.2832L205.707 34.6672C205.707 36.8176 205.362 39.4096 204.671 42.4432C203.979 45.4384 202.539 48.2224 200.351 50.7952C198.162 53.368 195.032 54.6544 190.962 54.6544ZM224.89 56.2672C219.398 56.2672 215.75 53.9632 213.946 49.3552C212.141 44.7088 211.238 39.736 211.238 34.4368C211.238 29.3296 211.93 25.24 213.312 22.168C214.733 19.096 216.442 16.9456 218.438 15.7168C220.474 14.488 222.49 13.8736 224.486 13.8736C228.326 13.8736 231.206 14.9872 233.126 17.2144C235.046 19.4032 236.275 22.0144 236.813 25.048C237.35 28.0432 237.619 31.4416 237.619 35.2432C237.619 38.3152 237.158 41.4832 236.237 44.7472C235.315 47.9728 233.894 50.6992 231.974 52.9264C230.054 55.1536 227.693 56.2672 224.89 56.2672ZM224.429 41.6368C225.466 41.6368 226.234 41.0608 226.733 39.9088C227.232 38.7568 227.482 37.3744 227.482 35.7616C227.482 34.2256 227.232 32.8816 226.733 31.7296C226.272 30.5776 225.638 30.0016 224.832 30.0016C223.872 30.0016 223.142 30.6736 222.643 32.0176C222.182 33.3232 221.952 34.744 221.952 36.28C221.952 37.8544 222.106 39.1408 222.413 40.1392C222.72 41.1376 223.392 41.6368 224.429 41.6368ZM244.643 55.6336C244.374 55.6336 244.202 55.5184 244.125 55.288C244.048 55.0576 243.99 54.808 243.952 54.5392C243.952 54.2704 243.952 54.0976 243.952 54.0208C243.875 53.4064 243.837 52.504 243.837 51.3136C243.837 50.5456 243.856 49.9696 243.894 49.5856C243.933 47.512 243.99 43.9024 244.067 38.7568C244.144 33.5728 244.182 28.9264 244.182 24.8176C244.182 20.4016 244.125 17.8288 244.01 17.0992C243.971 16.792 243.952 16.3888 243.952 15.8896C243.952 15.3136 244.029 14.9488 244.182 14.7952C244.374 14.6416 244.643 14.5648 244.989 14.5648C245.757 14.5648 246.506 14.584 247.235 14.6224L253.514 14.7376C255.818 14.7376 258.218 15.1408 260.714 15.9472C263.21 16.7536 264.458 18.2512 264.458 20.44C264.458 22.5136 263.69 24.1264 262.154 25.2784C260.618 26.4304 258.89 27.2176 256.97 27.64C255.088 28.0624 253.437 28.2736 252.016 28.2736C251.517 28.2736 251.248 28.2544 251.21 28.216C251.44 28.4464 252.957 30.4816 255.76 34.3216C264.208 45.6496 268.874 51.7552 269.757 52.6384C270.794 53.6752 271.312 54.3856 271.312 54.7696C271.312 54.8464 271.216 54.9808 271.024 55.1728C270.678 55.4032 269.814 55.5184 268.432 55.5184C267.434 55.5184 266.8 55.4416 266.531 55.288C266.262 55.1728 266.051 54.9616 265.898 54.6544C265.782 54.3472 265.686 54.1168 265.61 53.9632C265.494 53.7328 265.014 53.08 264.17 52.0048C263.363 50.8912 262.749 50.0464 262.326 49.4704C260.291 46.8592 258.525 44.4976 257.027 42.3856C256.106 41.08 254.397 38.8336 251.901 35.6464L250.979 34.4944L247.005 29.5408L246.774 31.8448C246.621 32.9968 246.582 34.3792 246.659 35.992C246.774 37.0672 246.851 39.8512 246.89 44.344C246.928 48.8368 246.947 52.12 246.947 54.1936C246.947 54.808 246.717 55.192 246.256 55.3456C245.795 55.5376 245.258 55.6336 244.643 55.6336ZM246.832 25.912C248.099 25.912 249.059 25.8928 249.712 25.8544C251.939 25.7776 253.667 25.624 254.896 25.3936C256.662 25.0864 257.987 24.664 258.87 24.1264C259.792 23.5888 260.253 22.744 260.253 21.592C260.253 20.824 259.85 20.1712 259.043 19.6336C258.237 19.0576 257.258 18.6352 256.106 18.3664C254.992 18.0592 254.013 17.9056 253.168 17.9056C252.208 17.8672 250.864 17.848 249.136 17.848H247.178L246.832 25.912ZM300.316 55.0576C300.163 55.0576 300.009 54.9232 299.856 54.6544C299.702 54.3856 299.568 54.1168 299.452 53.848C299.337 53.5792 299.241 53.3488 299.164 53.1568C298.972 52.7728 298.608 51.8896 298.07 50.5072C297.571 49.1248 297.187 48.0304 296.918 47.224C296.803 46.84 296.572 46.2832 296.227 45.5536C295.881 44.7856 295.632 44.248 295.478 43.9408C295.324 43.48 295.171 43.1728 295.017 43.0192C294.902 42.8656 294.71 42.7888 294.441 42.7888C294.172 42.7888 293.827 42.808 293.404 42.8464C293.02 42.8848 292.598 42.9232 292.137 42.9616C291.83 43.0384 290.87 43.0768 289.257 43.0768C288.144 43.0768 287.049 43.1152 285.974 43.192C285.628 43.2304 285.014 43.2496 284.131 43.2496L281.078 43.192C280.886 43.192 280.732 43.2688 280.617 43.4224C280.54 43.576 280.483 43.768 280.444 43.9984C280.406 44.1904 280.368 44.344 280.329 44.4592L279.984 45.8992C279.868 46.4368 279.715 47.0704 279.523 47.8C279.369 48.4912 279.235 49.144 279.12 49.7584L278.486 52.2352L278.025 53.9056C277.91 54.3664 277.795 54.6736 277.68 54.8272C277.603 54.9424 277.468 55 277.276 55H273.878C273.686 55 273.59 54.9232 273.59 54.7696C273.59 54.6928 273.667 54.424 273.82 53.9632C274.128 53.2336 274.396 52.504 274.627 51.7744C276.048 47.0128 276.892 43.9024 277.161 42.4432C277.507 40.5232 278.217 38.0464 279.292 35.0128C279.638 33.7072 279.964 32.5168 280.272 31.4416C280.387 30.904 280.56 30.2512 280.79 29.4832C281.52 26.7952 282.249 24.28 282.979 21.9376L284.419 17.3296C284.726 16.1392 285.11 14.9104 285.571 13.6432C285.801 13.0672 286.07 12.9328 286.377 13.24C286.608 13.3936 286.78 13.6624 286.896 14.0464C287.011 14.4304 287.088 14.6992 287.126 14.8528C287.241 15.3136 288.259 17.6176 290.179 21.7648C290.947 23.3392 291.772 25.3936 292.656 27.928C293.04 29.0416 294.096 31.4416 295.824 35.128C296.707 36.9328 297.283 38.1808 297.552 38.872C298.166 40.216 299.817 43.48 302.505 48.664L303.196 50.104C304.08 52.0624 304.752 53.3104 305.212 53.848C305.404 54.232 305.5 54.4816 305.5 54.5968C305.5 54.904 305.155 55.0576 304.464 55.0576H300.316ZM283.267 35.128C284.073 35.128 285.302 35.1088 286.953 35.0704C288.643 34.9936 289.699 34.9168 290.121 34.84C290.39 34.8016 290.62 34.7824 290.812 34.7824C291.004 34.7824 291.158 34.7632 291.273 34.7248C291.388 34.6864 291.446 34.6288 291.446 34.552C291.446 34.4752 291.388 34.3216 291.273 34.0912C291.081 33.7456 290.64 32.7856 289.948 31.2112C289.257 29.5984 288.777 28.3888 288.508 27.5824C288.124 26.6608 287.817 25.8928 287.587 25.2784C287.395 24.664 287.241 24.2416 287.126 24.0112C287.049 23.8192 286.953 23.6272 286.838 23.4352C286.761 23.2432 286.684 23.0896 286.608 22.9744C286.531 22.8592 286.454 22.8016 286.377 22.8016C286.262 22.8016 286.128 23.0896 285.974 23.6656C285.859 24.2416 285.763 24.6832 285.686 24.9904C284.995 27.2176 284.496 28.9072 284.188 30.0592C284.035 30.6352 283.804 31.3456 283.497 32.1904C283.228 32.9968 283.036 33.5536 282.921 33.8608C282.806 34.2448 282.748 34.552 282.748 34.7824C282.748 35.0128 282.921 35.128 283.267 35.128ZM340.487 14.2768C340.871 14.392 341.063 14.584 341.063 14.8528L340.948 15.3136C340.909 15.5824 340.852 16.1008 340.775 16.8688C340.698 17.5984 340.583 18.7312 340.429 20.2672C340.314 21.4192 340.218 24.0496 340.141 28.1584C340.065 32.2288 340.026 35.416 340.026 37.72C340.026 39.3328 339.949 42.136 339.796 46.1296L339.681 49.9312L339.623 52.2352C339.623 52.8112 339.661 53.368 339.738 53.9056L339.796 54.2512C339.796 54.4816 339.7 54.616 339.508 54.6544C339.354 54.6544 339.258 54.6544 339.22 54.6544C338.836 54.7312 338.145 54.7696 337.146 54.7696C336.839 54.7696 336.685 54.616 336.685 54.3088L336.743 45.784C336.705 45.1696 336.685 44.536 336.685 43.8832C336.724 43.192 336.743 42.5776 336.743 42.04V39.6208V35.3584L332.077 35.4736C330.426 35.512 328.199 35.5312 325.396 35.5312H319.981C318.522 35.5312 317.389 35.512 316.583 35.4736C316.583 36.1264 316.564 36.6256 316.525 36.9712C316.449 38.2 316.41 39.3712 316.41 40.4848L316.353 46.7056C316.353 49.7392 316.449 51.736 316.641 52.696C316.717 53.1568 316.756 53.4448 316.756 53.56C316.756 54.0976 316.602 54.4432 316.295 54.5968C316.026 54.712 315.719 54.7696 315.373 54.7696C315.066 54.7312 314.855 54.712 314.74 54.712C313.396 54.6352 311.86 54.6928 310.132 54.8848C309.479 54.9616 309.076 54.808 308.922 54.424C308.807 54.04 308.749 53.5024 308.749 52.8112C308.788 52.12 308.807 51.6016 308.807 51.256L308.692 31.3264L308.807 16.408C308.807 15.64 308.884 15.16 309.037 14.968C309.229 14.7376 309.517 14.6224 309.901 14.6224L311.169 14.68C311.361 14.68 311.802 14.6416 312.493 14.5648C312.685 14.5264 313.012 14.5072 313.473 14.5072L314.97 14.5648C315.277 14.6032 315.7 14.6224 316.237 14.6224C316.66 14.6224 316.909 14.7568 316.986 15.0256C317.101 15.256 317.14 15.5056 317.101 15.7744C317.101 16.0432 317.101 16.2352 317.101 16.3504C317.101 18.1168 317.025 20.4016 316.871 23.2048L316.641 28.9072L316.468 32.3056L319.924 32.4208L322.055 32.4784C323.898 32.5552 325.185 32.5936 325.914 32.5936C328.909 32.5936 331.194 32.5744 332.769 32.536C334.65 32.536 336.09 32.5168 337.089 32.4784V30.7504L337.031 27.5824C337.031 26.1232 337.108 23.128 337.261 18.5968L337.377 14.5648C337.415 14.2192 337.626 14.0464 338.01 14.0464L338.644 14.104C338.797 14.1424 339.085 14.1616 339.508 14.1616C339.969 14.1616 340.295 14.2 340.487 14.2768ZM336.685 54.1936V54.3088V54.1936Z" fill="#EBEBE3"/>
</svg>
